<svg width="20" height="16" fill="none" xmlns="http://www.w3.org/2000/svg"><path d="M19.25 1.852a7.89 7.89 0 01-2.267.621A3.96 3.96 0 0018.719.29a7.896 7.896 0 01-2.508.958A3.946 3.946 0 0013.328 0a3.95 3.95 0 00-3.847 4.85A11.212 11.212 0 011.341.723a3.948 3.948 0 001.222 5.273 3.94 3.94 0 01-1.789-.494v.05A3.952 3.952 0 003.94 9.424a3.973 3.973 0 01-1.783.068 3.954 3.954 0 003.69 2.742A7.926 7.926 0 010 13.87a11.178 11.178 0 006.054 1.774c7.264 0 11.237-6.018 11.237-11.236 0-.171-.004-.342-.012-.512a8.007 8.007 0 001.972-2.044z" fill="#00293F"/></svg>