<svg width="223" height="164" fill="none" xmlns="http://www.w3.org/2000/svg"><path opacity=".1" d="M108.685 164c45.288 0 82-36.713 82-82s-36.712-82-82-82c-45.287 0-82 36.713-82 82s36.713 82 82 82z" fill="#B087FA"/><path opacity=".5" fill-rule="evenodd" clip-rule="evenodd" d="M37.155 30.933a5.105 5.105 0 100 10.21 5.105 5.105 0 000-10.21z" fill="url(#paint0_linear)"/><path opacity=".5" fill-rule="evenodd" clip-rule="evenodd" d="M170.709 17.5a4.802 4.802 0 100 9.604 4.802 4.802 0 000-9.605z" fill="url(#paint1_linear)"/><path opacity=".5" fill-rule="evenodd" clip-rule="evenodd" d="M197.536 74.024a7.623 7.623 0 100 15.246 7.623 7.623 0 000-15.246z" fill="url(#paint2_linear)"/><path opacity=".5" fill-rule="evenodd" clip-rule="evenodd" d="M5.828 120.926a5.829 5.829 0 00-5.384 3.596 5.824 5.824 0 0010.226 5.465 5.825 5.825 0 00-4.842-9.061z" fill="#F9D6E0"/><path opacity=".5" fill-rule="evenodd" clip-rule="evenodd" d="M216.835 135.392a5.567 5.567 0 00-3.937 9.507 5.568 5.568 0 009.082-6.071 5.569 5.569 0 00-3.014-3.013 5.549 5.549 0 00-2.131-.423z" fill="url(#paint3_linear)"/><path opacity=".5" d="M110.275 17.488a6.849 6.849 0 10-2.59-13.45 6.849 6.849 0 002.59 13.45z" fill="url(#paint4_linear)"/><path d="M108.603 157.207c49.005 0 88.732-2.086 88.732-4.659s-39.727-4.659-88.732-4.659-88.731 2.086-88.731 4.659 39.726 4.659 88.731 4.659z" fill="#955CF1" opacity=".35"/><path fill-rule="evenodd" clip-rule="evenodd" d="M108.604 150.081c39.797 0 72.058 1.105 72.058 2.465 0 1.36-32.251 2.465-72.058 2.465-39.808 0-72.06-1.103-72.06-2.465 0-1.362 32.262-2.465 72.06-2.465z" fill="#955CF1" opacity=".35"/><path d="M44.882 55.27v68.94a7.054 7.054 0 007.054 7.054H161.9a7.054 7.054 0 007.054-7.054V55.27a7.055 7.055 0 00-7.054-7.054H51.936a7.054 7.054 0 00-7.054 7.054z" fill="#303A7D"/><path d="M47.956 57.57v64.337a6.463 6.463 0 006.462 6.463h105a6.464 6.464 0 006.463-6.463V57.571a6.463 6.463 0 00-6.463-6.462h-105a6.462 6.462 0 00-6.462 6.462z" fill="#D1B1FF"/><path fill-rule="evenodd" clip-rule="evenodd" d="M106.919 38.565a6.244 6.244 0 110 12.489 6.244 6.244 0 010-12.49zm0 1.619a4.628 4.628 0 100 9.256 4.628 4.628 0 000-9.256zm-5.281 12.752h10.564a.497.497 0 01.454.528v.914a.497.497 0 01-.454.53h-10.564a.501.501 0 01-.456-.53v-.914a.496.496 0 01.456-.528z" fill="#fff"/><path opacity=".5" d="M116.695 56.999H97.143a.528.528 0 00-.528.528v.916c0 .291.237.528.528.528h19.552a.528.528 0 00.528-.528v-.916a.528.528 0 00-.528-.528z" fill="#fff"/><path fill-rule="evenodd" clip-rule="evenodd" d="M45.21 72.588c4.852-1.052 8.833-6.004 10.904-11.682.782-2.137.776-2.67.602-4.349-.185-1.791-.16-2.428.44-3.62.636-1.26 1.117-1.053.856.13-.1.462-.36.668-.013 1.684 1-2.26 1.707-5.91 4.215-5.484-.114.205-.427.717-.764 2.274s-.628 4.13-.682 4.275c-.435 1.183-.994 2.093-1.275 3.863-1.711 10.731-3.059 15.201-12.21 19.618l-2.728-3.665.655-3.044z" fill="url(#paint5_linear)"/><path fill-rule="evenodd" clip-rule="evenodd" d="M45.21 72.588a9.84 9.84 0 001.471-.446 14.41 14.41 0 012.385 4.038c5.526-3.557 8.12-8.919 10.427-16.5-1.711 10.73-3.059 15.2-12.21 19.617l-2.728-3.665.655-3.044z" fill="url(#paint6_linear)"/><path fill-rule="evenodd" clip-rule="evenodd" d="M50.327 69.574c3.126-2.83 5.526-6.984 6.288-10.533.205-.411 2.572-.341 3.136.54-1.14 7.154-2.315 11.563-5.587 15.022-2.368 2.502-6.664 5.135-10.433 6.006-2.958.682-5.004.023-5.653-2.643-.22-.9.24-3.287 2.465-4.238 4.05-1.734 5.842-.586 9.784-4.154z" fill="#70C851"/><path style="mix-blend-mode:multiply" opacity=".5" fill-rule="evenodd" clip-rule="evenodd" d="M59.751 59.58c-1.14 7.156-2.315 11.564-5.587 15.023-2.368 2.502-6.664 5.135-10.433 6.006-2.958.682-5.004.023-5.653-2.643C48.28 79.418 56.154 72.742 59.75 59.58z" fill="url(#paint7_linear)"/><path fill-rule="evenodd" clip-rule="evenodd" d="M65.528 27.52l17.665.162h13.84L97.01 61.37a4.519 4.519 0 01-4.497 4.484l-27.127-.022.142-38.312z" fill="#F95DB0" opacity=".35"/><path d="M89.54 17.779H54.68a4.133 4.133 0 00-4.133 4.133v35.941a4.133 4.133 0 004.133 4.133h34.86a4.133 4.133 0 004.134-4.133V21.912a4.133 4.133 0 00-4.133-4.133z" fill="url(#paint8_linear)"/><path fill-rule="evenodd" clip-rule="evenodd" d="M93.674 50.522v7.331a4.147 4.147 0 01-4.133 4.133H54.68a4.15 4.15 0 01-4.134-4.133v-7.331h43.127z" fill="#fff"/><path opacity=".35" d="M61.89 52.597h-5.768a.684.684 0 00-.684.684v5.947c0 .377.306.684.684.684h5.768a.684.684 0 00.684-.684V53.28a.684.684 0 00-.684-.684z" fill="#03C8DE"/><path d="M58.35 54.026h-1.464v4.456h1.465v-4.456zm2.776 0H59.66v4.456h1.465v-4.456z" fill="#03C8DE"/><path opacity=".35" d="M74.995 52.597h-5.768a.684.684 0 00-.684.684v5.947c0 .377.306.684.684.684h5.768a.684.684 0 00.684-.684V53.28a.684.684 0 00-.684-.684z" fill="#03C8DE"/><path fill-rule="evenodd" clip-rule="evenodd" d="M70.18 53.87l3.86 2.383-3.86 2.385V53.87z" fill="#03C8DE"/><path opacity=".35" d="M88.1 52.597h-5.767a.684.684 0 00-.684.684v5.947c0 .377.306.684.684.684H88.1a.684.684 0 00.684-.684V53.28a.684.684 0 00-.684-.684z" fill="#03C8DE"/><path fill-rule="evenodd" clip-rule="evenodd" d="M84.081 54.029l3.611 2.228-3.61 2.23v-4.458z" fill="#03C8DE"/><path d="M83.57 54.02h-.828v4.456h.828V54.02z" fill="#03C8DE"/><path fill-rule="evenodd" clip-rule="evenodd" d="M67.452 39.571h9.328a.44.44 0 01.411.467v.807a.44.44 0 01-.41.466h-9.329a.44.44 0 01-.41-.466v-.807a.44.44 0 01.41-.467z" fill="#fff"/><path opacity=".5" d="M80.743 43.158H63.48a.466.466 0 00-.467.466v.807c0 .258.21.467.467.467h17.263a.466.466 0 00.466-.467v-.807a.466.466 0 00-.466-.466z" fill="#fff"/><path opacity=".5" fill-rule="evenodd" clip-rule="evenodd" d="M77.863 25.922c.133.554.152 1.21.355 1.807.458 1.354.986 1.372.922 2.67-.102 2.032-.963 1.808-1.643 3.195-.629 1.296-.238 3.726-5.59 2.917-.889-.134-2.538.347-3.725.205-2.369-.287-1.644-3.198-1.975-4.24-.394-1.265-1.723-1.848-1.515-3.53.254-2.055 1.848-1.566 2.563-3.324.939-2.328 2.898-3.43 4.87-2.62 1.775.73 3.082-.18 4.23.6.503.346 1.19 1.027 1.5 2.317l.008.003zm-5.74-1.438a5.34 5.34 0 100 10.68 5.34 5.34 0 000-10.68z" fill="#fff"/><path opacity=".5" fill-rule="evenodd" clip-rule="evenodd" d="M68.492 22.707c.616-.074 1.347 0 2.03-.154 1.544-.327 1.632-.904 3.056-.664 2.214.376 1.849 1.29 3.287 2.208 1.341.859 4.057.748 2.465 6.512-.263.96.051 2.83-.263 4.108-.617 2.562-3.724 1.395-4.91 1.615-1.438.269-2.247 1.643-4.07 1.204-2.22-.547-1.476-2.237-3.315-3.246-2.43-1.331-3.385-3.626-2.239-5.684 1.028-1.849.206-3.412 1.208-4.562.446-.508 1.276-1.171 2.739-1.343l.012.006zm-2.315 6.11a5.901 5.901 0 1011.721 1.385 5.901 5.901 0 00-11.721-1.384z" fill="#fff"/><path fill-rule="evenodd" clip-rule="evenodd" d="M72.134 23.53a6.3 6.3 0 11.004 12.601 6.3 6.3 0 01-.004-12.6zm0 1.631a4.67 4.67 0 100 9.34 4.67 4.67 0 000-9.34z" fill="#fff"/><path fill-rule="evenodd" clip-rule="evenodd" d="M72.132 26.141a2.005 2.005 0 110 4.01 2.005 2.005 0 010-4.01zm1.55 4.09a1.915 1.915 0 011.517 1.867v.027a3.945 3.945 0 01-6.134 0v-.027a1.915 1.915 0 011.518-1.867 2.356 2.356 0 003.1 0z" fill="#fff"/><path fill-rule="evenodd" clip-rule="evenodd" d="M148.436 62.535l-45.225.022c-1.185 0-2.157 1.305-2.157 2.893v31.017c0 1.588.972 2.895 2.157 2.893l45.225-.023V62.535z" fill="#F95DB0" opacity=".35"/><path fill-rule="evenodd" clip-rule="evenodd" d="M106.21 62.389h47.18c1.13 0 2.054 1.2 2.054 2.67v28.533c0 1.46-.926 2.66-2.054 2.66h-47.18c-1.128 0-2.054-1.198-2.054-2.66V65.059c0-1.472.924-2.67 2.054-2.67z" fill="url(#paint9_linear)"/><path d="M151.926 90.114h-44.251a.614.614 0 00-.614.614v1.375c0 .339.275.614.614.614h44.251a.614.614 0 00.614-.614v-1.375a.614.614 0 00-.614-.614z" fill="#14A0EC"/><path opacity=".5" fill-rule="evenodd" clip-rule="evenodd" d="M107.829 90.217h19.605a.57.57 0 01.571.567v1.267a.574.574 0 01-.571.567h-19.605a.57.57 0 01-.571-.567v-1.267a.57.57 0 01.571-.567z" fill="#00EDFF"/><path fill-rule="evenodd" clip-rule="evenodd" d="M178.217 94.239l-.992 1.544 1.742 1.93s.854-.013.922-.036c.068-.022.994-1.246.994-1.246l-.474-1.005-2.192-1.187z" fill="url(#paint10_linear)"/><path fill-rule="evenodd" clip-rule="evenodd" d="M133.023 84.393c-.445-1.411-.384-1.886-.115-2 .269-.116.555.435 1.027 1.39.543 1.085 1.206 2.163 2.243 2.777l-1.386 2.036c-1.233-1.19-2.445-1.366-3.535-2.145-1.368-.977-1.816-1.992-2.769-3.738-1.403-2.574.834-2.648 2.171-1.13.893 1.007 1.602 2.436 2.364 2.81z" fill="url(#paint11_linear)"/><path fill-rule="evenodd" clip-rule="evenodd" d="M161.41 146.745c.205.982.795 1.732.889 2.453.165 1.232-.552 2.491-2.023 2.504l-9.616.086c.51-3.287 5.649-1.463 7.377-5.107l2.237.128 1.136-.064z" fill="url(#paint12_linear)"/><path style="mix-blend-mode:multiply" opacity=".5" fill-rule="evenodd" clip-rule="evenodd" d="M161.41 146.745c.104.45.262.886.47 1.298-.115.921-3.451 1.422-4.595-.273.309-.318.563-.686.752-1.089l2.237.128 1.136-.064z" fill="url(#paint13_linear)"/><path fill-rule="evenodd" clip-rule="evenodd" d="M166.258 101.697c-2.17 6.909-3.924 12.564-5.013 18.011-1.643 8.182-2.292 16.228-3.777 27.002 1.253 1.335 3.927 1.027 4.599.736 5.546-20.953 7.551-25.028 18.099-42.047l-2.504-8.056-8.601 2.068-2.803 2.286z" fill="url(#paint14_linear)"/><path style="mix-blend-mode:multiply" opacity=".5" fill-rule="evenodd" clip-rule="evenodd" d="M171.331 109.651c-3.773 6.234-8.917 23.212-9.26 37.797 4.78-18.077 6.931-23.588 14.195-35.673l-4.935-2.124z" fill="url(#paint15_linear)"/><path fill-rule="evenodd" clip-rule="evenodd" d="M198.391 105.212c.478-.879.503-1.849.896-2.451.673-1.055 2.025-1.553 3.159-.616l7.417 6.119c-2.502 2.188-5.266-2.514-8.931-.834l-1.643-1.536-.898-.682z" fill="url(#paint16_linear)"/><path style="mix-blend-mode:multiply" opacity=".5" fill-rule="evenodd" clip-rule="evenodd" d="M198.391 105.212c.208-.412.367-.847.472-1.296.682-.631 3.558 1.13 3.345 3.163a3.985 3.985 0 00-1.276.351l-1.643-1.536-.898-.682z" fill="url(#paint17_linear)"/><path fill-rule="evenodd" clip-rule="evenodd" d="M165.908 101.968c3.928 7.615 6.826 13.917 13.49 17.49 9.42 5.047 17.28-5.865 22.651-11.991-1.499-2.432-2.317-2.826-3.864-3.266-4.576 3.805-10.735 9.33-14.502 6.641-1.181-.844-1.884-2.744-2.541-5.443-.67-2.744-1.183-5.327-2.822-7.526-.617-.822-1.401-1.494-2.287-2.217l-10.125 6.312z" fill="url(#paint18_linear)"/><path style="mix-blend-mode:multiply" opacity=".5" fill-rule="evenodd" clip-rule="evenodd" d="M165.908 101.968c3.928 7.615 6.826 13.917 13.49 17.49 9.42 5.047 17.28-5.865 22.651-11.991-13.863 14.688-25.749 13.439-36.141-5.499z" fill="url(#paint19_linear)"/><path fill-rule="evenodd" clip-rule="evenodd" d="M154.697 77.405c.304 2.26.741 4.326 3.048 6.123l-3.89 2.67c-.424-2.35-.787-3.937-1.878-5.496l2.122-3.13.598-.167z" fill="#FFA698"/><path fill-rule="evenodd" clip-rule="evenodd" d="M154.697 77.405c.105.951.307 1.89.604 2.8.215.91-1.223 2.652-2.49 1.988a8.32 8.32 0 00-.834-1.495l2.122-3.13.598-.163z" fill="url(#paint20_linear)"/><path fill-rule="evenodd" clip-rule="evenodd" d="M148 76.137c1.36 4.497 1.953 6.592 3.227 6.204.52-.158 1.401-1.027 2.317-1.999 1.366-1.46.296-3.675-.345-6.326l-2.722-1.198-2.477 3.32z" fill="url(#paint21_linear)"/><path fill-rule="evenodd" clip-rule="evenodd" d="M148 76.137l.246.822c1.379.41 2.987-1.276 3.367-1.629.561 1.335 1.362 2.92 2.56 3.681.191-1.347-.506-3.052-.974-4.99l-2.722-1.197L148 76.137z" fill="#FFA698"/><path fill-rule="evenodd" clip-rule="evenodd" d="M135.495 85.502c5.219 3 8.627 3.81 10.909 3.135 1.894-.559 3.416-1.89 5.898-4.034 2.259-1.956 3.962-3.515 6.994-4.086 3.17-.596 6.984-.29 9.266.125 4.538.822 9.039 2.851 11.027 6.354 1.438 2.514 1.42 5.62 1.409 9.76-.295-.206-3.221-2.113-3.383-2.26-1.265-6.73-2.596-7.011-8.216-7.6 2.958 2.425 5.371 5.135 8 7.409 1.167 1.012 2.213 1.624 3.649 2.633-3.798 4.04-10.214 6.573-15.569 6.286-3.081-5.078-6.294-6.128-10.287-10.32-8.798 3.976-12.746 2.984-21.201-4.314-.164-1.699.528-2.63 1.504-3.088z" fill="url(#paint22_linear)"/><path style="mix-blend-mode:multiply" opacity=".5" fill-rule="evenodd" clip-rule="evenodd" d="M168.209 85.621c8.685.298 8.936 3.458 9.414 8.87-1.265-6.73-2.596-7.008-8.216-7.6a4.9 4.9 0 01-1.198-1.27z" fill="url(#paint23_linear)"/><path style="mix-blend-mode:multiply" opacity=".5" fill-rule="evenodd" clip-rule="evenodd" d="M155.9 89.97c2.326 3.698 7.309 7.352 9.571 13.147-3.082-5.078-6.229-6.052-10.222-10.244-8.8 3.977-12.812 3.017-21.267-4.29 5.189 3.784 12.697 7.268 21.918 1.387z" fill="url(#paint24_linear)"/><path fill-rule="evenodd" clip-rule="evenodd" d="M150.368 71.386c5.528-8.264 12.625-4.519 16.845-4.827 5.944-.425 7.16-4.008 10.634-5.423 5.394-2.194 10.63-.674 13.352 5.04 3.126 6.537-2.416 20.97-13.37 17.667-3.597-1.083-5.341-4.376-8.78-4.13-2.282.165-9.147 4.725-14.346-.33-1.459-1.415-2.541-3.416-3.005-4.688-.742.847-1.868 1.516-2.848 1.683-2.438.41-3.859-1.528-3.539-3.231.51-2.65 3.634-2.593 5.057-1.76z" fill="url(#paint25_linear)"/><path fill-rule="evenodd" clip-rule="evenodd" d="M192.011 71.799c-.604 6.748-5.814 14.568-14.174 12.052-3.597-1.083-5.341-4.376-8.78-4.13-2.282.165-9.147 4.725-14.346-.33-1.458-1.415-2.541-3.416-3.005-4.687-.742.846-1.867 1.516-2.847 1.682-1.849.318-3.12-.731-3.48-2 2.023 1.565 4.725 1 6.633-1.172 4.61 4.61 7.054 5.224 10.419 4.655 5.084-.86 6.548-1.643 8.422-1.793 3.104-.234 5.341 2.876 8.796 3.564 3.726.741 9.983-1.101 12.362-7.841z" fill="#22043D"/><path d="M135.738 82.08a8.69 8.69 0 10-12.29-12.289 8.69 8.69 0 0012.29 12.288z" fill="url(#paint26_linear)"/><path fill-rule="evenodd" clip-rule="evenodd" d="M126.012 71.912l9.4 4.059-9.4 4.059v-8.118z" fill="#fff"/><path fill-rule="evenodd" clip-rule="evenodd" d="M132.861 84.118c-.444-1.413-.384-1.888-.115-2.003.269-.115.53.45 1.027 1.39l.411.76-1.699 1.47.376-1.617z" fill="url(#paint27_linear)"/><path fill-rule="evenodd" clip-rule="evenodd" d="M145.239 28.277h-16.877c-1.927 0-3.504 1.668-3.504 3.698V55.62c0 2.022 1.583 3.698 3.504 3.698h20.155l-.123-7.619-3.155-23.421z" fill="#F95DB0" opacity=".35"/><path fill-rule="evenodd" clip-rule="evenodd" d="M152.642 28.277h-20.671c-1.674 0-3.042 1.438-3.042 3.2V52.01c0 1.755 1.376 3.203 3.042 3.203h20.671c1.666 0 3.043-1.438 3.043-3.203V31.486c0-1.768-1.368-3.209-3.043-3.209z" fill="url(#paint28_linear)"/><path fill-rule="evenodd" clip-rule="evenodd" d="M144.262 33.247l-.319-2.554h-3.272l-.319 2.554a9.304 9.304 0 00-2.734 1.047l-1.963-1.522-2.317 2.315 1.417 1.828a8.497 8.497 0 00-1.304 2.909l-2.19.28v3.278l2.19.28a8.496 8.496 0 001.304 2.908l-1.417 1.828 2.317 2.315 1.963-1.522c.85.491 1.773.844 2.734 1.045l.319 2.554h3.272l.319-2.553a9.245 9.245 0 002.734-1.046l1.965 1.522 2.316-2.315-1.418-1.828a8.518 8.518 0 001.305-2.909l2.189-.28v-3.286l-2.189-.28a8.517 8.517 0 00-1.305-2.908l1.418-1.828-2.316-2.315-1.965 1.522a9.318 9.318 0 00-2.734-1.048v.009zm-1.954 2.933a5.56 5.56 0 11-.004 11.121 5.56 5.56 0 01.004-11.121z" fill="#fff"/><path fill-rule="evenodd" clip-rule="evenodd" d="M65.382 73.529l30.377.024c.78 0 1.421.85 1.421 1.886v19.416c0 1.027-.64 1.888-1.421 1.888l-30.377-.025v-23.19z" fill="#F95DB0" opacity=".35"/><path fill-rule="evenodd" clip-rule="evenodd" d="M62.073 73.668h30.792c.737 0 1.341.709 1.341 1.574v16.87c0 .865-.606 1.574-1.341 1.574H62.073c-.736 0-1.342-.707-1.342-1.573V75.242c0-.865.604-1.574 1.342-1.574z" fill="#fff"/><path fill-rule="evenodd" clip-rule="evenodd" d="M90.597 82.811l-8.455-4.942.721-2.148 10.27 6.004-.872 2.602-14.724 7.307v-.029l1.014-3.025 12.046-5.769z" fill="url(#paint29_linear)"/><path fill-rule="evenodd" clip-rule="evenodd" d="M73.401 92.106l5.651-16.856 2.435-.002-5.653 16.858H73.4z" fill="url(#paint30_linear)"/><path fill-rule="evenodd" clip-rule="evenodd" d="M64.34 84.543l8.456 4.944-.722 2.147-10.27-6.004.87-2.6 14.727-7.31v.03l-1.015 3.025-12.045 5.768z" fill="url(#paint31_linear)"/><path fill-rule="evenodd" clip-rule="evenodd" d="M39.574 147.25c-.206 1.027-.822 1.798-.925 2.545-.17 1.29.573 2.587 2.1 2.599l9.977.09c-.528-3.41-5.86-1.52-7.654-5.299l-2.321.131-1.177-.066z" fill="url(#paint32_linear)"/><path style="mix-blend-mode:multiply" opacity=".5" fill-rule="evenodd" clip-rule="evenodd" d="M39.573 147.25c-.057.397-.443 1.26-.567 1.549.935.647 4.61 1.196 5.44.06-.411-.351-1.066-.957-1.337-1.528l-2.36-.009-1.176-.072z" fill="url(#paint33_linear)"/><path fill-rule="evenodd" clip-rule="evenodd" d="M26.936 144.323c-.435 1.526-1.12 3.726-1.053 5.288.04.992 1.047.597 1.602 1.452.205.322 0 .939-.616 1.008-1.27.144-4.146-.067-5.12-.195-1.027-.133-.3-.988-.092-3.229.047-.509.078-.971-.109-1.29-.367-.616-.427-1.232-.047-2.054.427-.924 1.306-1.095 2.04-2.26l3.395 1.28z" fill="url(#paint34_linear)"/><path style="mix-blend-mode:multiply" opacity=".5" fill-rule="evenodd" clip-rule="evenodd" d="M26.807 144.551c-.187.651-.44 1.611-.616 2.356-1.74-.53-3.429-1.164-4.05-2.38.247-.226 1.166-1.101 1.402-1.473l3.264 1.497z" fill="url(#paint35_linear)"/><path fill-rule="evenodd" clip-rule="evenodd" d="M36.005 97.585c-.322 3.819-.143 7.358-.312 11.177-.743 16.743-3.944 18.247-12.826 34.612 1.115 2.241 3.589 2.578 5.178 1.964 13.95-20.057 16.04-23.362 19.735-46.773l-11.775-.98z" fill="url(#paint36_linear)"/><path style="mix-blend-mode:multiply" opacity=".5" fill-rule="evenodd" clip-rule="evenodd" d="M39.413 99.666c-.322 3.818-.39 12.265-.558 16.084-.485 10.887-7.356 21.836-10.477 29.093 13.95-20.057 15.698-22.857 19.394-46.268l-8.359 1.09z" fill="url(#paint37_linear)"/><path fill-rule="evenodd" clip-rule="evenodd" d="M52.74 95.948c2.332 22.706 1.122 30.923-8.395 52.058-1.027 1.079-4.63.411-5.178-1.088 3.16-11.837 4.93-18.732 5.246-23.993.733-12.479-4.778-12.721-5.136-26.05l13.463-.927z" fill="url(#paint38_linear)"/><path fill-rule="evenodd" clip-rule="evenodd" d="M53.572 79.387c.806 7.6.411 14.88.013 23.237-5.341 1.356-12.86 1.91-18.37-1.849.802-8.217.061-19.794 1.848-23.475 2.948-6.05 13.564-6.867 16.51 2.087z" fill="#70C851"/><path style="mix-blend-mode:multiply" opacity=".5" fill-rule="evenodd" clip-rule="evenodd" d="M53.3 78.348c1.408 7.329.252 16.671.285 24.276L48.97 77.563l4.328.785z" fill="url(#paint39_linear)"/><path fill-rule="evenodd" clip-rule="evenodd" d="M44.906 70.799c-.045.838.368 1.976.616 2.528-.382.715-2.29 1.588-4.003 1.194-.084-1.547-.341-2.4-1.25-3.552l1.817-.908 1.592-.228 1.228.966z" fill="#FFA698"/><path fill-rule="evenodd" clip-rule="evenodd" d="M44.906 70.799a4.24 4.24 0 00.162 1.232c-.234.684-2.826 2.054-3.804.725a5.269 5.269 0 00-.986-1.793l1.816-.908 1.592-.228 1.22.972z" fill="url(#paint40_linear)"/><path fill-rule="evenodd" clip-rule="evenodd" d="M44.992 63.586c.822 2.055 1.62 3.628 1.765 5.734.074 1.078-.24 1.392-1.253 1.575-1.829.329-3.246.411-4.064-.464l-1.503-2.216 1.078-3.891 2.017-.738h1.96z" fill="url(#paint41_linear)"/><path fill-rule="evenodd" clip-rule="evenodd" d="M44.992 63.586c.121.304.242.596.362.884a5.75 5.75 0 01-1.27.85c-.487 1.027.06 2.492-.538 2.814-.259.14-.616 0-.885-.19-1.007-.781-.822.081-.194.854.551.667.73 1.027.563 2.307-.657-.056-1.193-.255-1.59-.674l-1.503-2.216 1.078-3.891 2.017-.738h1.96z" fill="#FFA698"/><path fill-rule="evenodd" clip-rule="evenodd" d="M35.64 66.271c-1.358-2.399.08-4.663 2.282-4.34.292-1.459 1.686-1.832 2.876-1.58.425-1.438 2.26-1.773 3.327-1.123 2.09 1.26 2.751 3.995-.394 5.626-.464 1.167-.275 1.703-.458 2.904-.033.206-.514-.343-.988-.552-.323-.142-.737-.074-.875.168-.45.8.678 1.264 1.045 2.14.213.643.264 1.327.15 1.993-.143.66-.643 1.007-1.281.586-3.073-2.034-4.645-3.985-5.684-5.822z" fill="url(#paint42_linear)"/><path fill-rule="evenodd" clip-rule="evenodd" d="M45.206 60.177c1.11 1.394 1.009 3.383-1.485 4.677-.464 1.167-.275 1.703-.458 2.904-.033.206-.514-.343-.988-.552-.323-.142-.738-.074-.875.168-.45.8.678 1.264 1.045 2.14.213.643.264 1.327.15 1.993-.144.66-.643 1.007-1.282.586a27.055 27.055 0 01-1.438-1.027c.701-.323 1.028-.996.715-2.178-.437-1.618-.673-2.976 1.134-2.73.968.132.276-.645 1.027-2.393 1.048-.581 2.311-1.263 2.455-3.588z" fill="#22043D"/><path fill-rule="evenodd" clip-rule="evenodd" d="M54.844 76.236c4.895.822 10.431-2.288 14.47-6.779 1.518-1.692 1.711-2.187 2.175-3.814.493-1.732.754-2.313 1.755-3.194 1.06-.935 1.438-.563.747.437-.267.39-.583.485-.639 1.56 1.771-1.728 3.784-4.853 5.957-3.524-.182.146-.661.508-1.555 1.826-.893 1.32-2.12 3.601-2.222 3.714-.846.937-1.7 1.574-2.623 3.112-5.58 9.324-8.49 12.964-18.632 13.669l-1.164-4.423 1.731-2.584z" fill="url(#paint43_linear)"/><path fill-rule="evenodd" clip-rule="evenodd" d="M54.844 76.236a9.55 9.55 0 001.532.134c.489 1.496.729 3.063.711 4.638 6.454-1.25 10.856-5.259 15.817-11.44-5.579 9.326-8.49 12.964-18.631 13.669l-1.165-4.423 1.736-2.578z" fill="url(#paint44_linear)"/><path fill-rule="evenodd" clip-rule="evenodd" d="M60.717 75.342c3.954-1.462 7.725-4.424 9.755-7.438.351-.295 2.514.641 2.711 1.67-3.72 6.216-6.452 9.86-10.776 11.863-3.128 1.438-8.095 2.288-11.914 1.695-3.001-.467-4.655-1.849-4.264-4.556.131-.916 1.438-2.956 3.87-3.014 4.396-.105 5.63 1.627 10.618-.22z" fill="#70C851"/><path style="mix-blend-mode:multiply" opacity=".5" fill-rule="evenodd" clip-rule="evenodd" d="M73.183 69.575c-3.72 6.215-6.452 9.86-10.776 11.862-3.128 1.438-8.095 2.289-11.914 1.695-3.001-.466-4.655-1.849-4.264-4.556 8.925 5.146 18.725 1.88 26.954-9.001z" fill="url(#paint45_linear)"/><path d="M139.541 108.767h-21.555a.678.678 0 00-.677.678v1.512c0 .374.303.678.677.678h21.555a.679.679 0 00.678-.678v-1.512a.679.679 0 00-.678-.678zm0 7.381h-21.555a.677.677 0 00-.677.678v1.512c0 .374.303.678.677.678h21.555a.679.679 0 00.678-.678v-1.512a.678.678 0 00-.678-.678zm-10.941 5.309h-10.521a.678.678 0 00-.678.678v1.512c0 .374.303.678.678.678H128.6a.678.678 0 00.678-.678v-1.512a.678.678 0 00-.678-.678z" fill="#fff"/><path opacity=".3" fill-rule="evenodd" clip-rule="evenodd" d="M105.5 102c.692 0 1.369.205 1.944.59a3.495 3.495 0 011.489 3.593 3.505 3.505 0 01-2.75 2.75 3.495 3.495 0 01-3.593-1.489A3.502 3.502 0 01105.5 102z" fill="#fff"/><path d="M105.5 107a1.5 1.5 0 10-.001-3.001A1.5 1.5 0 00105.5 107z" fill="#fff"/><path opacity=".3" d="M109.426 111h-8.852c-.317 0-.574.295-.574.66v.68c0 .365.257.66.574.66h8.852c.317 0 .574-.295.574-.66v-.68c0-.365-.257-.66-.574-.66zm3.14 3h-12.132c-.24 0-.434.295-.434.66v.68c0 .365.194.66.434.66h12.132c.24 0 .434-.295.434-.66v-.68c0-.365-.194-.66-.434-.66z" fill="#fff"/><path opacity=".2" d="M66.164 102h29.673a2.17 2.17 0 011.53.628 2.136 2.136 0 01.633 1.517v18.708a2.14 2.14 0 01-.634 1.518 2.172 2.172 0 01-1.53.629H66.164a2.172 2.172 0 01-1.53-.629 2.14 2.14 0 01-.634-1.518v-18.709c.001-.569.23-1.114.635-1.516a2.173 2.173 0 011.53-.628z" fill="url(#paint46_linear)"/><path fill-rule="evenodd" clip-rule="evenodd" d="M74.284 105l9.65 12.583 5.965-4.996L97 123H66l8.284-18z" fill="#fff"/><path d="M84.5 109c1.38 0 2.5-.895 2.5-2s-1.12-2-2.5-2-2.5.895-2.5 2 1.12 2 2.5 2z" fill="#FFC770"/><defs><linearGradient id="paint0_linear" x1="36.821" y1="31.375" x2="37.445" y2="40.05" gradientUnits="userSpaceOnUse"><stop stop-color="#6D6AFE"/><stop offset="1" stop-color="#3FB0F7"/></linearGradient><linearGradient id="paint1_linear" x1="170.695" y1="18.409" x2="170.726" y2="26.612" gradientUnits="userSpaceOnUse"><stop stop-color="#FA5DB1"/><stop offset="1" stop-color="#FEBFBF"/></linearGradient><linearGradient id="paint2_linear" x1="195.404" y1="75.106" x2="198.384" y2="84.249" gradientUnits="userSpaceOnUse"><stop stop-color="#1C8EF4"/><stop offset="1" stop-color="#00CFDD"/></linearGradient><linearGradient id="paint3_linear" x1="30997.4" y1="19793.8" x2="30999.3" y2="20309.4" gradientUnits="userSpaceOnUse"><stop stop-color="#FA5DB1"/><stop offset="1" stop-color="#FEBFBF"/></linearGradient><linearGradient id="paint4_linear" x1="108.388" y1="7.47" x2="109.803" y2="15.272" gradientUnits="userSpaceOnUse"><stop stop-color="#A77EF7"/><stop offset="1" stop-color="#5E65D6"/></linearGradient><linearGradient id="paint5_linear" x1="51.461" y1="54.641" x2="55.444" y2="70.803" gradientUnits="userSpaceOnUse"><stop stop-color="#FFB89E"/><stop offset="1" stop-color="#FFA799"/></linearGradient><linearGradient id="paint6_linear" x1="55.822" y1="72.039" x2="52.819" y2="68.892" gradientUnits="userSpaceOnUse"><stop stop-color="#FF8A78"/><stop offset="1" stop-color="#FFA799"/></linearGradient><linearGradient id="paint7_linear" x1="42284" y1="30997.6" x2="42473.8" y2="32450.6" gradientUnits="userSpaceOnUse"><stop stop-color="#A77EF7"/><stop offset="1" stop-color="#5E65D6"/></linearGradient><linearGradient id="paint8_linear" x1="90407" y1="52337.9" x2="88163.4" y2="59220.8" gradientUnits="userSpaceOnUse"><stop stop-color="#1C8EF4"/><stop offset="1" stop-color="#00CFDD"/></linearGradient><linearGradient id="paint9_linear" x1="121172" y1="48421.5" x2="120243" y2="52559.4" gradientUnits="userSpaceOnUse"><stop stop-color="#6D6AFE"/><stop offset="1" stop-color="#3FB0F7"/></linearGradient><linearGradient id="paint10_linear" x1="9616.63" y1="5541.18" x2="9605.6" y2="5552.83" gradientUnits="userSpaceOnUse"><stop stop-color="#FF8A78"/><stop offset="1" stop-color="#FFA799"/></linearGradient><linearGradient id="paint11_linear" x1="19355.7" y1="12284.8" x2="19171.4" y2="12107.3" gradientUnits="userSpaceOnUse"><stop stop-color="#FF8A78"/><stop offset="1" stop-color="#FFA799"/></linearGradient><linearGradient id="paint12_linear" x1="155.872" y1="148.9" x2="157.104" y2="151.673" gradientUnits="userSpaceOnUse"><stop stop-color="#3E4795"/><stop offset="1" stop-color="#273088"/></linearGradient><linearGradient id="paint13_linear" x1="11612.3" y1="4155.47" x2="11588.4" y2="4182.98" gradientUnits="userSpaceOnUse"><stop stop-color="#3E4795"/><stop offset="1" stop-color="#273088"/></linearGradient><linearGradient id="paint14_linear" x1="56738.8" y1="81372.7" x2="59923" y2="85039.8" gradientUnits="userSpaceOnUse"><stop stop-color="#3E4795"/><stop offset="1" stop-color="#273088"/></linearGradient><linearGradient id="paint15_linear" x1="35756.3" y1="62723.4" x2="37601.2" y2="64848.1" gradientUnits="userSpaceOnUse"><stop stop-color="#3E4795"/><stop offset="1" stop-color="#273088"/></linearGradient><linearGradient id="paint16_linear" x1="31185.7" y1="11813.4" x2="31203.8" y2="11713.6" gradientUnits="userSpaceOnUse"><stop stop-color="#3E4795"/><stop offset="1" stop-color="#273088"/></linearGradient><linearGradient id="paint17_linear" x1="10439.9" y1="5984.37" x2="10485.2" y2="5993.66" gradientUnits="userSpaceOnUse"><stop stop-color="#3E4795"/><stop offset="1" stop-color="#273088"/></linearGradient><linearGradient id="paint18_linear" x1="92178.4" y1="39729" x2="93836.9" y2="41639" gradientUnits="userSpaceOnUse"><stop stop-color="#3E4795"/><stop offset="1" stop-color="#273088"/></linearGradient><linearGradient id="paint19_linear" x1="91778.7" y1="30007.4" x2="93364.5" y2="31833.4" gradientUnits="userSpaceOnUse"><stop stop-color="#3E4795"/><stop offset="1" stop-color="#273088"/></linearGradient><linearGradient id="paint20_linear" x1="8376.38" y1="7434.88" x2="8392.3" y2="7446.21" gradientUnits="userSpaceOnUse"><stop stop-color="#FF8A78"/><stop offset="1" stop-color="#FFA799"/></linearGradient><linearGradient id="paint21_linear" x1="15321.9" y1="14145" x2="15279.7" y2="14398.1" gradientUnits="userSpaceOnUse"><stop stop-color="#FFB89E"/><stop offset="1" stop-color="#FFA799"/></linearGradient><linearGradient id="paint22_linear" x1="158.756" y1="101.771" x2="156.579" y2="82.629" gradientUnits="userSpaceOnUse"><stop stop-color="#965CF2"/><stop offset="1" stop-color="#FF8ADC"/></linearGradient><linearGradient id="paint23_linear" x1="24192.1" y1="13907.2" x2="24159" y2="13447.9" gradientUnits="userSpaceOnUse"><stop stop-color="#965CF2"/><stop offset="1" stop-color="#FF8ADC"/></linearGradient><linearGradient id="paint24_linear" x1="77063.8" y1="23388.5" x2="76973.2" y2="22132.6" gradientUnits="userSpaceOnUse"><stop stop-color="#965CF2"/><stop offset="1" stop-color="#FF8ADC"/></linearGradient><linearGradient id="paint25_linear" x1="168.406" y1="70.01" x2="169.926" y2="79.593" gradientUnits="userSpaceOnUse"><stop stop-color="#5A2D68"/><stop offset="1" stop-color="#22043D"/></linearGradient><linearGradient id="paint26_linear" x1="40759.1" y1="26323.1" x2="40789.7" y2="25150.2" gradientUnits="userSpaceOnUse"><stop stop-color="#70C851"/><stop offset="1" stop-color="#70C851"/></linearGradient><linearGradient id="paint27_linear" x1="4141.55" y1="5587.03" x2="4116.73" y2="5575.32" gradientUnits="userSpaceOnUse"><stop stop-color="#FF8A78"/><stop offset="1" stop-color="#FFA799"/></linearGradient><linearGradient id="paint28_linear" x1="64153.1" y1="33930.8" x2="64670.5" y2="36680.4" gradientUnits="userSpaceOnUse"><stop stop-color="#A77EF7"/><stop offset="1" stop-color="#5E65D6"/></linearGradient><linearGradient id="paint29_linear" x1="33045.9" y1="24776.3" x2="33393" y2="23783.3" gradientUnits="userSpaceOnUse"><stop stop-color="#965CF2"/><stop offset="1" stop-color="#FF8ADC"/></linearGradient><linearGradient id="paint30_linear" x1="16853" y1="26006.8" x2="17522.1" y2="25070.1" gradientUnits="userSpaceOnUse"><stop stop-color="#965CF2"/><stop offset="1" stop-color="#FF8ADC"/></linearGradient><linearGradient id="paint31_linear" x1="31889.5" y1="24174.1" x2="32236.6" y2="23181.1" gradientUnits="userSpaceOnUse"><stop stop-color="#965CF2"/><stop offset="1" stop-color="#FF8ADC"/></linearGradient><linearGradient id="paint32_linear" x1="45.278" y1="149.381" x2="44.547" y2="151.482" gradientUnits="userSpaceOnUse"><stop stop-color="#40457F"/><stop offset="1" stop-color="#1E2353"/></linearGradient><linearGradient id="paint33_linear" x1="42.024" y1="149.411" x2="40.713" y2="146.84" gradientUnits="userSpaceOnUse"><stop stop-color="#002041"/><stop offset="1" stop-color="#004975"/></linearGradient><linearGradient id="paint34_linear" x1="11630" y1="16668.3" x2="11552.2" y2="16696.2" gradientUnits="userSpaceOnUse"><stop stop-color="#40457F"/><stop offset="1" stop-color="#1E2353"/></linearGradient><linearGradient id="paint35_linear" x1="8515.5" y1="7086.64" x2="8581.04" y2="7130.88" gradientUnits="userSpaceOnUse"><stop stop-color="#40457F"/><stop offset="1" stop-color="#1E2353"/></linearGradient><linearGradient id="paint36_linear" x1="45938.5" y1="78913.3" x2="48958.3" y2="80953" gradientUnits="userSpaceOnUse"><stop stop-color="#40457F"/><stop offset="1" stop-color="#1E2353"/></linearGradient><linearGradient id="paint37_linear" x1="36152.5" y1="76107" x2="38741.8" y2="77856.2" gradientUnits="userSpaceOnUse"><stop stop-color="#40457F"/><stop offset="1" stop-color="#1E2353"/></linearGradient><linearGradient id="paint38_linear" x1="27818.5" y1="85365.8" x2="31726.7" y2="88005.8" gradientUnits="userSpaceOnUse"><stop stop-color="#40457F"/><stop offset="1" stop-color="#1E2353"/></linearGradient><linearGradient id="paint39_linear" x1="9901.53" y1="37516.1" x2="10349.6" y2="39895.4" gradientUnits="userSpaceOnUse"><stop stop-color="#A77EF7"/><stop offset="1" stop-color="#5E65D6"/></linearGradient><linearGradient id="paint40_linear" x1="9219.91" y1="5116.08" x2="9220.75" y2="5147" gradientUnits="userSpaceOnUse"><stop stop-color="#FF8A78"/><stop offset="1" stop-color="#FFA799"/></linearGradient><linearGradient id="paint41_linear" x1="13144.3" y1="10786.8" x2="13158.1" y2="10949" gradientUnits="userSpaceOnUse"><stop stop-color="#FFB89E"/><stop offset="1" stop-color="#FFA799"/></linearGradient><linearGradient id="paint42_linear" x1="20547.7" y1="18884" x2="20719.4" y2="19010" gradientUnits="userSpaceOnUse"><stop stop-color="#5A2D68"/><stop offset="1" stop-color="#22043D"/></linearGradient><linearGradient id="paint43_linear" x1="53454.6" y1="31468.7" x2="53170.4" y2="33809.2" gradientUnits="userSpaceOnUse"><stop stop-color="#FFB89E"/><stop offset="1" stop-color="#FFA799"/></linearGradient><linearGradient id="paint44_linear" x1="40146.2" y1="20443" x2="40048.4" y2="20088.9" gradientUnits="userSpaceOnUse"><stop stop-color="#FF8A78"/><stop offset="1" stop-color="#FFA799"/></linearGradient><linearGradient id="paint45_linear" x1="53938.9" y1="20382.6" x2="53790" y2="21534.2" gradientUnits="userSpaceOnUse"><stop stop-color="#A77EF7"/><stop offset="1" stop-color="#5E65D6"/></linearGradient><linearGradient id="paint46_linear" x1="72086.5" y1="39458.7" x2="75296.1" y2="41241.4" gradientUnits="userSpaceOnUse"><stop stop-color="#fff"/><stop offset=".56" stop-color="#FF8ADC"/><stop offset="1" stop-color="#FFBBA8"/></linearGradient></defs></svg>