<svg width="189" height="164" fill="none" xmlns="http://www.w3.org/2000/svg"><path style="mix-blend-mode:multiply" opacity=".35" fill-rule="evenodd" clip-rule="evenodd" d="M94.102 154.628c51.018 0 92.377 2.098 92.377 4.686 0 2.587-41.353 4.686-92.377 4.686-51.024 0-92.379-2.099-92.379-4.686 0-2.588 41.36-4.686 92.38-4.686z" fill="#0738A9"/><path style="mix-blend-mode:multiply" opacity=".35" fill-rule="evenodd" clip-rule="evenodd" d="M94.102 156.833c41.432 0 75.027 1.111 75.027 2.481 0 1.369-33.589 2.481-75.027 2.481s-75.026-1.112-75.026-2.481c0-1.37 33.592-2.481 75.026-2.481z" fill="#0738A9"/><path style="mix-blend-mode:multiply" opacity=".35" d="M120.789 156.386c25.32 0 45.847-1.111 45.847-2.481 0-1.371-20.527-2.481-45.847-2.481s-45.847 1.11-45.847 2.481c0 1.37 20.526 2.481 45.847 2.481z" fill="#0738A9"/><path d="M146.323 24.676h-57.59a7.391 7.391 0 00-7.39 7.394v115.267a7.39 7.39 0 007.39 7.393h57.59a7.39 7.39 0 007.389-7.393V32.07a7.391 7.391 0 00-7.389-7.394z" fill="#303A7D"/><path d="M143.911 27.898H91.144a6.772 6.772 0 00-6.77 6.775v110.062a6.772 6.772 0 006.77 6.775h52.767a6.772 6.772 0 006.77-6.775V34.673a6.772 6.772 0 00-6.77-6.775z" fill="url(#paint0_linear)"/><path fill-rule="evenodd" clip-rule="evenodd" d="M117.528 49.587a7.76 7.76 0 017.176 4.796 7.771 7.771 0 01-5.658 10.598 7.763 7.763 0 01-7.974-3.304 7.78 7.78 0 01.965-9.813 7.764 7.764 0 015.491-2.277zm0 2.014a5.75 5.75 0 00-5.315 3.556 5.757 5.757 0 001.249 6.274 5.753 5.753 0 009.384-6.276 5.755 5.755 0 00-5.318-3.554zm-6.57 15.871h13.147a.617.617 0 01.567.658v1.137a.623.623 0 01-.567.658h-13.147a.62.62 0 01-.565-.658V68.13a.618.618 0 01.565-.658z" fill="#fff"/><path opacity=".5" d="M129.686 72.528h-24.314a.658.658 0 00-.658.659v1.137c0 .363.295.658.658.658h24.314a.658.658 0 00.657-.658v-1.137a.658.658 0 00-.657-.659z" fill="#fff"/><path d="M182.946 14.465c1.285-5.416-2.06-10.85-7.473-12.136-5.412-1.286-10.842 2.062-12.127 7.478-1.285 5.416 2.06 10.85 7.472 12.136 5.413 1.286 10.842-2.062 12.128-7.478z" fill="url(#paint1_linear)"/><path opacity=".9" fill-rule="evenodd" clip-rule="evenodd" d="M11.547 94.363a9.2 9.2 0 018.504 5.686 9.215 9.215 0 01-6.708 12.558 9.202 9.202 0 01-11-9.034 9.213 9.213 0 015.682-8.51 9.198 9.198 0 013.522-.7z" fill="url(#paint2_linear)"/><path opacity=".5" fill-rule="evenodd" clip-rule="evenodd" d="M18.692 19.543a5.575 5.575 0 015.154 3.446 5.586 5.586 0 01-4.066 7.612 5.574 5.574 0 01-5.727-2.374 5.585 5.585 0 014.639-8.684z" fill="url(#paint3_linear)"/><path fill-rule="evenodd" clip-rule="evenodd" d="M153.55 56.143c.24 1.438.664 2.85-.197 4.765l8.163.053c-2.757-2.578-2.933-4.12-2.903-6.542l-3.05.612-2.013 1.112z" fill="url(#paint4_linear)"/><path fill-rule="evenodd" clip-rule="evenodd" d="M151.227 46.42c-1.265 1.651-2.127 5.413-1.706 8.286.142.968.276 2.18.942 2.536.726.395 1.839.22 3.525.028 2.447-.278 2.166-.861 3.446-3.123l2.107-5.228-4.378-4.336-3.936 1.837z" fill="url(#paint5_linear)"/><path fill-rule="evenodd" clip-rule="evenodd" d="M151.227 46.42c-.211.28-.395.58-.55.896.682.412 1.113.517 2.468.385.09 1.35.76 4.73 2.38 4.335.288-.07.619-.461.928-.662.378-.244.894-.118.669.607-.608 1.97-1.144 2.34-.482 3.693.197-.394.441-.897.788-1.525l2.107-5.228-4.378-4.336-3.93 1.835z" fill="#FFA698"/><path fill-rule="evenodd" clip-rule="evenodd" d="M153.578 47.16c-3.876.476-4.433-2.003-3.533-3.842 1.122-2.3 4.529-3.847 6.788-.213 1.662-.82 2.304-.654 3.04 1.208 3.023-.695 4.104 2.012 3.385 4.564-.654 2.33-2.394 3.821-3.796 5.634a11.14 11.14 0 00-1.125 1.738c-.937-.291-1.148-.668-1.297-1.346-.107-.47.423-2.069.529-3.111.079-.777-.439-1.38-1.262-.864-.244.156-.394.537-.774.881-1.831-1.101-1.676-2.69-1.955-4.648z" fill="url(#paint6_linear)"/><path fill-rule="evenodd" clip-rule="evenodd" d="M153.578 47.16c-3.876.476-4.433-2.003-3.533-3.842.014-.032.029-.061.045-.09.14 1.588 1.075 2.524 2.667 2.469 1.79-.062 2.315.078 2.626 2.325.166 1.182.272 1.935 1.009 1.744 1.597-.416 2.489.288 2.501 2.223 0 .957.368 1.667 1.055 1.92-.165.196-.327.393-.486.602a3.892 3.892 0 00-.776 1.941c-2.769-.863-1.314-2.715-1.117-4.66.079-.777-.439-1.38-1.262-.864-.244.156-.394.537-.774.881-1.831-1.101-1.676-2.69-1.955-4.648z" fill="#22043D"/><path fill-rule="evenodd" clip-rule="evenodd" d="M167.502 61.586c1.481 1.363 2.989 2.66 4.041 4.02 8.839 11.447 2.278 22.013-18.054 17.944 2.272-14.238 4.892-10.866 14.013-21.964z" fill="url(#paint7_linear)"/><path fill-rule="evenodd" clip-rule="evenodd" d="M175.337 74.08c.723 7.462-6.778 12.487-21.858 9.47 1.741-10.91 3.687-11.48 8.604-16.143l5.83 2.613c.485 3.502.985 6.86 1.33 10.383 3.463-1.46 5.261-2.99 6.094-6.324z" fill="#053297" opacity=".35"/><path fill-rule="evenodd" clip-rule="evenodd" d="M181.552 160.849l-9.375.15c-.467-.52-.591-2.308-.101-3.074.692-1.078 1.109-2.231 1.156-3.303l3.527.161 1.52-.715c.684.897 2.131 2.548 3.151 4.004.5.716.343 2.014.122 2.777z" fill="#0F2F64"/><path fill-rule="evenodd" clip-rule="evenodd" d="M172.88 156.784c.192-.709.31-1.435.352-2.168l3.527.162 1.52-.716c.27.353.656.822 1.089 1.352-1.376 1.476-5.59 2.298-6.488 1.37z" fill="#1E2353" opacity=".3"/><path fill-rule="evenodd" clip-rule="evenodd" d="M166.366 93.165c.861 2.607 1.993 4.577 3.178 9.908 1.29 5.795 1.656 11.258 2.623 16.89a347.548 347.548 0 007.564 34.178c-1.906 1.588-5.642 1.59-7.004 1.108-4.077-9.278-6.583-18.327-10.171-27.735-4.923-12.888-10.28-25.795-14.535-38.032l18.345 3.683z" fill="#0738A9"/><path style="mix-blend-mode:multiply" opacity=".5" fill-rule="evenodd" clip-rule="evenodd" d="M158.566 92.987c1.926 5.835 12.751 47.921 14.164 62.271-4.076-9.277-6.583-18.326-10.17-27.734-4.923-12.888-10.28-25.795-14.535-38.033l10.541 3.496z" fill="url(#paint8_linear)"/><path fill-rule="evenodd" clip-rule="evenodd" d="M154.474 153.308c.289 1.438 1.166 2.534 1.304 3.59.238 1.819-.81 3.646-2.954 3.665l-14.06.124c.744-4.806 8.27-2.142 10.785-7.47l3.273.183 1.652-.092z" fill="#0F2F64"/><path fill-rule="evenodd" clip-rule="evenodd" d="M154.474 153.308c.096.449.239.888.425 1.308-1.317.914-3.859 1.533-6.801.522a5.826 5.826 0 001.445-1.921l3.273.183 1.658-.092z" fill="#1E2353" opacity=".3"/><path fill-rule="evenodd" clip-rule="evenodd" d="M144.84 91.965c-.575 3.448-.762 6.735-.712 11.023.179 16.114 2.768 34.362 4.493 50.459 2.294.881 4.819.834 6.729.048.278-9.321.439-19.231 1.394-28.403 1.587-15.238 7.838-25.913 4.183-34.88l-10.878-.368-5.209 2.12z" fill="#0738AB"/><path fill-rule="evenodd" clip-rule="evenodd" d="M170.034 64.932c3.271 5.411-1.792 4.636-2.276 8.483-.937 8.775-1.379 14.78.23 23.754-9.938 3.604-18.067 2.262-23.512.059 1.087-6.897-.15-23.718 1.611-30.107 1.026-3.724-3.545-4.617-.739-5.715 5.138-1.998 12.406-3.641 17.739-2.05 1.701.51 3.096 1.035 4.456 2.308.827.78 1.656 1.894 2.491 3.268z" fill="url(#paint9_linear)"/><path fill-rule="evenodd" clip-rule="evenodd" d="M154.234 99.362a30.059 30.059 0 01-9.76-2.134c1.087-6.897-.149-23.718 1.611-30.107 1.026-3.724-3.257-4.02-.453-5.11 1.595-.62 5.197 1.074 6.032 2.956 5.524 12.464 5.09 23.052 2.57 34.395z" fill="#17ACC8" opacity=".35"/><path fill-rule="evenodd" clip-rule="evenodd" d="M132.637 103.506l5.099-10.864a.96.96 0 011.276-.46l17.023 8.045a.96.96 0 01.461 1.275l-5.098 10.866a.96.96 0 01-1.276.459l-17.024-8.044a.96.96 0 01-.461-1.277z" fill="#9FD2FB"/><path fill-rule="evenodd" clip-rule="evenodd" d="M145.595 95.253l4.913 2.322c-1.211 1.97-2.302 3.787-3.186 5.947.012 1.577-.453 3.252-3.395 6.338l-3.102-1.467 2.005-2.672 2.765-10.468z" fill="#9FD2FB" opacity=".5"/><path fill-rule="evenodd" clip-rule="evenodd" d="M139.976 108.401c1.349.68 2.064 1.031 2.409.93.872-.254 2.418-2.626 3.113-3.941.614-1.182-.358-2.562.142-3.371-.713-1.183-2.192-2.939-3.419-2.956-.285 2.928-3.924 5.959-4.489 7.586-.341.978 1.536 1.404 2.244 1.752z" fill="url(#paint10_linear)"/><path fill-rule="evenodd" clip-rule="evenodd" d="M141.04 108.927c.689.326 1.108.473 1.349.395.872-.253 2.418-2.627 3.113-3.942.614-1.182-.358-2.561.142-3.371-.713-1.183 0 .084-1.219.065.128 2.729-1.613 4.386-3.385 6.853z" fill="url(#paint11_linear)"/><path fill-rule="evenodd" clip-rule="evenodd" d="M152.834 74.398c.423 4.028.565 8.102.049 11.182-.892 5.34-2.8 10.379-6.857 17.036-2.489.612-4.649-1.057-4.389-2.893 1.616-3.35 3.442-12.628 3.456-14.92.031-4.595-.745-8.854-2.184-15.479-1.13-5.147.197-7.248 2.633-8 6.526-2.006 6.827 8.637 7.292 13.075z" fill="url(#paint12_linear)"/><path style="mix-blend-mode:multiply" opacity=".5" fill-rule="evenodd" clip-rule="evenodd" d="M81.344 38.847H102.6a3.195 3.195 0 013.19 3.19v41.214a3.195 3.195 0 01-3.186 3.186h-21.26v-47.59z" fill="url(#paint13_linear)"/><path d="M98.594 38.847H58.64a2.913 2.913 0 00-2.913 2.914v37.692a2.913 2.913 0 002.913 2.915h39.953a2.913 2.913 0 002.912-2.915V41.761a2.913 2.913 0 00-2.912-2.914z" fill="#fff"/><path opacity=".3" fill-rule="evenodd" clip-rule="evenodd" d="M61.97 41.763a4.057 4.057 0 013.75 2.508 4.064 4.064 0 01-2.959 5.537 4.055 4.055 0 01-4.166-1.728 4.063 4.063 0 013.376-6.317z" fill="#FEC82E"/><path fill-rule="evenodd" clip-rule="evenodd" d="M61.97 43.637a2.185 2.185 0 012.144 2.615 2.188 2.188 0 01-2.981 1.593 2.186 2.186 0 01-1.182-2.859 2.186 2.186 0 012.02-1.349z" fill="#FEC82E"/><path d="M80.129 42.725H68.473a.754.754 0 00-.754.755v.78c0 .417.337.755.754.755h11.656a.754.754 0 00.754-.755v-.78a.754.754 0 00-.754-.755zm9.438 3.905H68.473a.754.754 0 00-.754.755v.78c0 .418.337.755.754.755h21.094a.754.754 0 00.754-.754v-.78a.754.754 0 00-.754-.755z" fill="#1B53D6"/><path opacity=".7" d="M96.538 52.103H60.695a2.614 2.614 0 00-2.613 2.615v22.796a2.614 2.614 0 002.613 2.615h35.843a2.614 2.614 0 002.613-2.615V54.718a2.614 2.614 0 00-2.613-2.615z" fill="#169AFC"/><path fill-rule="evenodd" clip-rule="evenodd" d="M69.824 55.87L81.58 71.593l7.268-6.244 8.652 13.01H59.732l10.092-22.488z" fill="#D2FFC2"/><path fill-rule="evenodd" clip-rule="evenodd" d="M82.933 55.87a2.6 2.6 0 012.551 3.112 2.604 2.604 0 01-3.546 1.897 2.601 2.601 0 01-1.409-3.401 2.6 2.6 0 012.404-1.607z" fill="#FFC770"/><path style="mix-blend-mode:multiply" opacity=".5" fill-rule="evenodd" clip-rule="evenodd" d="M139.884 43.848l-24.942-.096a1.682 1.682 0 01-1.603-1.455l-.526-4.313-1.606-13.203 25.648.114 9.602-.237 2.009.326-3.667 15.87c-.411 2.395-.927 3.01-4.915 2.994z" fill="url(#paint14_linear)"/><path fill-rule="evenodd" clip-rule="evenodd" d="M122.514 18.295h23.658c.811 0 1.325.664 1.144 1.476l-4.425 19.738a1.958 1.958 0 01-1.806 1.474h-23.658c-.809 0-1.325-.664-1.142-1.474l4.425-19.74a1.956 1.956 0 011.804-1.474z" fill="#1B53D6"/><path d="M141.306 13.091h-22.673a2.52 2.52 0 00-2.519 2.52v22.28a2.52 2.52 0 002.519 2.52h22.673a2.52 2.52 0 002.519-2.52v-22.28a2.52 2.52 0 00-2.519-2.52z" fill="#F2F4FF"/><path d="M141.595 15.497h-23.252a.634.634 0 00-.634.635v1.42c0 .35.284.635.634.635h23.252c.35 0 .634-.284.634-.635v-1.42a.634.634 0 00-.634-.635zm.207 5.763h-23.666a.427.427 0 00-.427.427v.952c0 .236.191.427.427.427h23.666a.427.427 0 00.427-.427v-.952a.427.427 0 00-.427-.428zm0 4.65h-23.666a.427.427 0 00-.427.427v.952c0 .236.191.428.427.428h23.666a.427.427 0 00.427-.428v-.952a.427.427 0 00-.427-.427zm0 4.65h-23.666a.427.427 0 00-.427.428v.952c0 .236.191.427.427.427h23.666a.427.427 0 00.427-.427v-.952a.427.427 0 00-.427-.428z" fill="#DCE8F8"/><path fill-rule="evenodd" clip-rule="evenodd" d="M131.151 20.642h7.561a1.542 1.542 0 011.487 1.323l2.198 17.696a1.144 1.144 0 01-1.158 1.322h-23.963a1.542 1.542 0 01-1.487-1.322l-.487-3.93-1.711-13.772-.301-2.434a1.795 1.795 0 01.422-1.456 1.78 1.78 0 011.386-.611h9.991c1.137 0 1.702.414 2.442 1.364 1.257 1.631 1.513 1.82 3.62 1.82z" fill="#70C851"/><path style="mix-blend-mode:multiply" opacity=".5" fill-rule="evenodd" clip-rule="evenodd" d="M127.453 99.126v15.297c0 3.695-2.84 6.726-6.302 6.726H81.344V92.4h39.807c3.47 0 6.302 3.027 6.302 6.726z" fill="url(#paint15_linear)"/><path fill-rule="evenodd" clip-rule="evenodd" d="M123.747 98.32v13.461a5.945 5.945 0 01-1.736 4.178 5.936 5.936 0 01-4.172 1.744h-44.97a5.94 5.94 0 01-5.908-5.922V98.32a5.94 5.94 0 015.907-5.912h44.963a5.931 5.931 0 014.175 1.736 5.942 5.942 0 011.741 4.176z" fill="url(#paint16_linear)"/><path fill-rule="evenodd" clip-rule="evenodd" d="M86.477 100.619h34.199a.988.988 0 01.948 1.027v2.294a.994.994 0 01-.948 1.026H86.477a.991.991 0 01-.949-1.026v-2.294a.988.988 0 01.95-1.027z" fill="#fff"/><path d="M114.671 107.113H86.088c-.31 0-.56.25-.56.559v1.25c0 .309.25.559.56.559h28.583a.56.56 0 00.559-.559v-1.25a.56.56 0 00-.559-.559z" fill="#fff"/><path opacity=".2" fill-rule="evenodd" clip-rule="evenodd" d="M76.523 98.905a6.139 6.139 0 015.676 3.793 6.149 6.149 0 01-4.475 8.381 6.133 6.133 0 01-6.306-2.613 6.15 6.15 0 012.755-9.093 6.137 6.137 0 012.35-.468z" fill="#fff"/><path fill-rule="evenodd" clip-rule="evenodd" d="M76.523 101.134a3.91 3.91 0 013.618 2.417 3.919 3.919 0 01-2.852 5.342 3.91 3.91 0 01-4.019-1.665 3.92 3.92 0 01.486-4.946 3.91 3.91 0 012.767-1.148zm0 1.551a2.36 2.36 0 00-2.183 1.459 2.369 2.369 0 001.722 3.225 2.363 2.363 0 10.46-4.684zm-10.025 8.58a9.124 9.124 0 018.436 5.638 9.142 9.142 0 01-1.979 9.957 9.125 9.125 0 01-14.047-1.385 9.143 9.143 0 011.137-11.535 9.126 9.126 0 016.453-2.675z" fill="#fff"/><path fill-rule="evenodd" clip-rule="evenodd" d="M66.498 117.117a4.806 4.806 0 012.211.536v-1.379a.314.314 0 00-.309-.309h-3.803a.311.311 0 00-.309.309v1.379a4.798 4.798 0 012.21-.536zm4.135 2.334a4.82 4.82 0 01-6.554 6.648 4.817 4.817 0 01-2.39-4.229 4.82 4.82 0 01.69-2.419v-3.183a2.236 2.236 0 012.226-2.227h3.803a2.23 2.23 0 012.225 2.227v3.183z" fill="url(#paint17_linear)"/><path fill-rule="evenodd" clip-rule="evenodd" d="M66.498 120.879a.969.969 0 01.92.653.972.972 0 01-.318 1.083v1.794a.605.605 0 01-.602.603.605.605 0 01-.6-.603v-1.794a.972.972 0 01.6-1.736z" fill="#21389B"/><path style="mix-blend-mode:multiply" opacity=".5" fill-rule="evenodd" clip-rule="evenodd" d="M95.845 130.32a4.305 4.305 0 014.184-3.314h9.059a4.31 4.31 0 014.186 3.314h4.135a6.38 6.38 0 014.502 1.871 6.394 6.394 0 011.871 4.504v18.035H88.73a7.316 7.316 0 01-3.381-.825v-17.21a6.381 6.381 0 016.372-6.375h4.124z" fill="url(#paint18_linear)"/><path d="M117.403 132.908H91.721a3.786 3.786 0 00-3.785 3.787v18.126a3.786 3.786 0 003.785 3.787h25.682a3.785 3.785 0 003.785-3.787v-18.126a3.786 3.786 0 00-3.785-3.787z" fill="#1B53D6"/><path fill-rule="evenodd" clip-rule="evenodd" d="M91.721 134.565h25.688a3.785 3.785 0 013.785 3.77v6.428l-9.866 5.425h-3.706v.727a.944.944 0 01-.907.964h-4.02a.937.937 0 01-.907-.964v-.727h-3.984l-9.868-5.425v-6.428a3.79 3.79 0 013.785-3.77z" fill="#E23B93" opacity=".5"/><path fill-rule="evenodd" clip-rule="evenodd" d="M100.03 129.595h9.058a1.717 1.717 0 011.713 1.713v2.922c-6.343 3.502-6.154 3.502-12.494 0v-2.924a1.72 1.72 0 011.713-1.713l.01.002zm1.347 1.656a1.284 1.284 0 00-1.318 1.239v2.109c4.848 2.518 4.159 2.518 9.007 0v-2.111a1.284 1.284 0 00-1.315-1.239l-6.374.002z" fill="#FEC82E"/><path fill-rule="evenodd" clip-rule="evenodd" d="M110.811 131.968v2.262c-6.343 3.502-6.154 3.502-12.495 0v-2.262h1.867a1.169 1.169 0 00-.124.522v2.108c4.848 2.519 4.159 2.519 9.007 0v-2.11c0-.181-.041-.36-.122-.522l1.867.002z" fill="#E23B93" opacity=".5"/><path fill-rule="evenodd" clip-rule="evenodd" d="M91.721 132.908h25.688a3.792 3.792 0 013.785 3.787v6.456l-9.866 5.449H97.804l-9.868-5.449v-6.456a3.798 3.798 0 013.785-3.787z" fill="url(#paint19_linear)"/><path d="M106.236 146.468h-3.062a.693.693 0 00-.693.693v2.818c0 .383.311.694.693.694h3.062a.694.694 0 00.694-.694v-2.818a.694.694 0 00-.694-.693z" fill="url(#paint20_linear)"/><path fill-rule="evenodd" clip-rule="evenodd" d="M103.3 146.641h2.812a.636.636 0 01.634.636v2.586c-.642-2.05-1.504-2.513-3.446-3.222z" fill="#FFD85E"/><path fill-rule="evenodd" clip-rule="evenodd" d="M69.235 59.637c.134-1.821.693-1.935 3.06-3.459.495-.315.965-.743 2.052-1.996.756.627.197 1.295-.327 2.217-.274.483-.484 1-.624 1.539 2.133-.13 2.853-.53 3.348-1.09 2.489-2.78 2.942-3.295 6.22-3.285-1.534 1.992-2.684 3.273-3.485 5.364-.492 1.285-.394 1.183-1.278 1.589-1.203.55-2.223 1.125-3.348 1.678-2.522 1.234-2.457 1.863-4.094 4.18l-3.12-1.783c1.1-2.34 1.403-2.365 1.596-4.954z" fill="url(#paint21_linear)"/><path fill-rule="evenodd" clip-rule="evenodd" d="M70.635 61.526c1.201-2.843 2.216-3.024 5.772-4.05l1.97 1.183-1.675-.634c-2.451 1.172-4.816 1.03-6.067 3.502z" fill="#FF8978"/><path fill-rule="evenodd" clip-rule="evenodd" d="M44.673 58.25c7.129 2.305 9.336 12.47 13.103 12.31 3.315-.146 6.32-2.905 10.6-9.075 1.09-.045 3.114 1.344 3.99 3.076-3.024 5.295-7.355 14.963-14.178 15.192-3.545.118-9.023-2.708-12.31-6.986-5.588-7.28-3.91-7.16-1.205-14.518z" fill="url(#paint22_linear)"/><path fill-rule="evenodd" clip-rule="evenodd" d="M45.89 65.235c4.482 8.149 8.27 11.576 11.979 12.263 1.937.36 5.612-1.042 10.34-5.632-2.584 4.056-5.833 7.747-10.021 7.883-3.545.118-9.023-2.708-12.31-6.986l.012-7.528z" fill="#6266D7" opacity=".35"/><path fill-rule="evenodd" clip-rule="evenodd" d="M15.476 158.859c1.648 1.446 2.205 2.047 4.332 2.132 1.737.071 2.33-.38 3.324-1.182 1.107-.889 1.453-1.449 1.448-2.253-.014-1.537-.788-2.936-.87-4.861l-3.49.159-1.507-.707c-.675.887-2.107 2.52-3.115 3.961-.494.713-.339 1.998-.122 2.751z" fill="#0F2F64"/><path style="mix-blend-mode:multiply" opacity=".5" fill-rule="evenodd" clip-rule="evenodd" d="M24.07 154.837c-.19-.7-.307-1.417-.349-2.14l-3.49.159-1.506-.707c-.266.349-.648.814-1.077 1.336 1.353 1.454 5.524 2.27 6.422 1.352z" fill="url(#paint23_linear)"/><path fill-rule="evenodd" clip-rule="evenodd" d="M42.277 151.406c-.286 1.423-1.152 2.508-1.288 3.547-.236 1.799.8 3.608 2.928 3.628l13.916.122c-.736-4.757-8.176-2.118-10.675-7.394l-3.239.182-1.642-.085z" fill="#0F2F64"/><path style="mix-blend-mode:multiply" opacity=".5" fill-rule="evenodd" clip-rule="evenodd" d="M42.277 151.406a6.603 6.603 0 01-.42 1.295c1.304.904 3.82 1.517 6.733.516a5.735 5.735 0 01-1.432-1.902l-3.24.181-1.641-.09z" fill="url(#paint24_linear)"/><path fill-rule="evenodd" clip-rule="evenodd" d="M51.811 90.682c.57 3.413.755 6.664.707 10.909-.177 15.948-2.74 34.009-4.446 49.943-2.273.871-4.77.826-6.662.045-.274-9.224-.372-18.732-.853-27.848-.606-11.481-2.052-20.463-4.672-34.793l10.767-.365 5.16 2.109z" fill="#0738A9"/><path fill-rule="evenodd" clip-rule="evenodd" d="M44.97 90.682c.564 3.413.564 13.232.525 17.483-.16 14.22-2.336 29.34-4.085 43.414-.273-9.224-.372-18.732-.852-27.848-.532-10.05-1.706-18.193-3.742-29.682l8.155-3.367z" fill="#1E2353" opacity=".3"/><path fill-rule="evenodd" clip-rule="evenodd" d="M30.509 91.868c-.853 2.582-1.97 4.532-3.15 9.808-1.277 5.734-1.64 11.141-2.596 16.716a344.184 344.184 0 01-7.483 33.828c1.886 1.576 5.582 1.576 6.933 1.095 4.033-9.181 6.514-18.139 10.067-27.448 4.864-12.756 10.173-25.531 14.375-37.65l-18.145 3.65z" fill="#0738AB"/><path fill-rule="evenodd" clip-rule="evenodd" d="M29.698 70.694c-.065 6.924.352 16.403-.046 23.174 7.529 1.614 15.602 2.207 22.878-.274-.092-4.493-1.144-11.193-2.213-17.396-.734-4.25.07-8.277-.788-12.039-.76-3.32-2.607-5.354-5.271-6.128a19.359 19.359 0 00-6.14-.702c-4.671.187-9.962 1.48-13.3 5.541-4.218 4.665.801 11.706 4.88 7.824z" fill="url(#paint25_linear)"/><path fill-rule="evenodd" clip-rule="evenodd" d="M34.944 54.084a28.826 28.826 0 01-.41 3.94c.618 2.168 2.643 3.595 4.655 3.323 1.735-.234 2.188-2.58 1.595-4.03a20.09 20.09 0 01-.138-2.008l-4.38-1.279-1.322.053z" fill="#FFA698"/><path fill-rule="evenodd" clip-rule="evenodd" d="M34.944 54.084c-.022.417-.1 1.607-.128 1.986 1.266 2.66 4.824 3.224 6.043 1.921-.085-.705-.197-1.97-.213-2.674l-4.38-1.279-1.322.046z" fill="url(#paint26_linear)"/><path fill-rule="evenodd" clip-rule="evenodd" d="M34.258 52.385c-1.125.213-1.412-.168-1.672-.918-.26-.751-.246-.562-.725-1.153a3.153 3.153 0 01-.494-.855c-.362-.954-.153-1.532-.17-2.267-.017-.91-.41-1.255-.574-1.844-.788-2.856 1.668-5.344 4.342-4.032.967-1.74 2.503-1.774 3.9-.97 1.633-.985 3.2-.878 4.307.395 2.147 2.463.136 4.926-1.34 5.576l-4.699 3.35-2.875 2.718z" fill="url(#paint27_linear)"/><path fill-rule="evenodd" clip-rule="evenodd" d="M34.258 52.385c-1.124.213-1.412-.168-1.672-.918-.26-.751-.246-.562-.724-1.153a3.151 3.151 0 01-.495-.855c-.362-.954-.153-1.532-.169-2.267v-.031c.697 1.2 2.182 1.432 2.322-.254.736-.591 1.21-1.305 1.313-2.15.13-1.07.59-1.661 1.773-1.323 2.772.789 5.04 2.237 7.482-.075-.175 1.402-1.32 2.535-2.254 2.956l-4.699 3.35-2.877 2.72z" fill="#22043D"/><path fill-rule="evenodd" clip-rule="evenodd" d="M42.383 45.978c.197 2.911.666 5.892-.463 8.671-.41 1.005-1.063 1.63-2.63 1.293-1.085-.233-2.22-.73-3.226-1.14-1.528-.62-1.306-1.233-1.563-1.773a3.475 3.475 0 00-.499-.725c-.602-.707-1.608-1.135-1.646-2.136-.035-.92.658-1.413 1.012-.788.494.88 1.62 2.364.77-2.276.928-.702 1.107-.986 1.351-1.74.244-.755.498-1.325 1.379-.854 1.825.98 3.396 1.922 5.515 1.468z" fill="url(#paint28_linear)"/><path fill-rule="evenodd" clip-rule="evenodd" d="M42.383 45.978c.02.284.043.57.065.854-2.824.486-4.238-.757-6.04-1.904-.647 1.108-.813 1.43-1.732 2.327.021.324.358 2.113.13 2.992-.185.715-.567.613-.985.177-.278-.29-.886-1.6-1.406-.77.175-.564.668-.769.95-.27.493.88 1.62 2.364.77-2.276.927-.702 1.106-.986 1.35-1.74.244-.755.498-1.325 1.379-.854 1.829.976 3.4 1.918 5.52 1.464z" fill="#FFA698"/><path fill-rule="evenodd" clip-rule="evenodd" d="M38.77 63.946l.766 17.988 3.15 3.983 2.068-4.797-4.809-17.51c.496-1.47.333-1.808.05-2.024-.333-.255-.01-.284-1.119-.15-.729.089-1.475.163-1.369.952.093.607.617 1.044 1.263 1.558z" fill="#0738AB"/><path fill-rule="evenodd" clip-rule="evenodd" d="M34.672 57.034c-.632.21-1.103.423-1.213.827-.38 1.397 2.028 5.333 3.595 5.701a5.494 5.494 0 011.916-2.191c-2.595-.765-4.015-2.038-4.298-4.337zm6.108-.143c.469.016.886.17.967.26.664.741.695 3.874-.368 5.658a8.53 8.53 0 00-2.485-1.744c2.32-1.381 2.11-2.731 1.886-4.174z" fill="#4E9C3C"/><path fill-rule="evenodd" clip-rule="evenodd" d="M45.823 74.52l-12.53-2.42a1.023 1.023 0 00-1.195.81L28.345 92.6a1.024 1.024 0 00.807 1.194l12.53 2.422a1.021 1.021 0 001.195-.808l3.754-19.69a1.023 1.023 0 00-.808-1.196z" fill="#9FD2FB"/><path fill-rule="evenodd" clip-rule="evenodd" d="M29.69 85.544l-1.091 5.682c2.457.197 4.696.394 7.107.985 1.344.997 3.077 1.647 7.573 1.05l.683-3.586-3.548.05-10.724-4.18z" fill="#9FD2FB" opacity=".5"/><path fill-rule="evenodd" clip-rule="evenodd" d="M44.51 88.95c-.262 1.586-.41 2.42-.711 2.654-.764.591-3.773.435-5.343.197-1.392-.197-1.983-1.918-2.985-1.99-.573-1.356.75-3.045 1.503-4.113 2.08.788 5.677-.327 7.428.209 1.06.33.244 2.217.108 3.042z" fill="url(#paint29_linear)"/><path fill-rule="evenodd" clip-rule="evenodd" d="M44.295 90.19c-.151.79-.287 1.25-.496 1.414-.764.591-3.773.435-5.342.197-1.393-.197-1.983-1.918-2.986-1.99-.573-1.356.067.059.82-1.007 2.258 1.828 4.775 1.367 8.004 1.387z" fill="url(#paint30_linear)"/><path fill-rule="evenodd" clip-rule="evenodd" d="M30.471 70.68c-2.56 3.3-5.41 5.691-4.8 7.642.984 3.153 5.316 4.863 12.337 7.407.32 1.037-.454 3.548-1.893 4.834-5.854-1.556-16.236-3.251-18.2-9.756-.59-1.988-.563-4.8.241-7.644 1.438-5.09 6.989-12.064 11.815-13.991 1.867-.753 2.385 9.074.5 11.508z" fill="url(#paint31_linear)"/><path fill-rule="evenodd" clip-rule="evenodd" d="M35.843 84.937c.69.257 1.412.52 2.166.789.321 1.036-.453 3.547-1.892 4.834-5.854-1.557-16.236-3.252-18.2-9.757 3.396 5.573 15.288 8.574 17.926 4.134z" fill="#6266D7" opacity=".35"/><defs><linearGradient id="paint0_linear" x1="106.049" y1="143.49" x2="131.747" y2="23.253" gradientUnits="userSpaceOnUse"><stop stop-color="#8DBEFF"/><stop offset="1" stop-color="#0090FA"/></linearGradient><linearGradient id="paint1_linear" x1="23387.7" y1="3576.89" x2="23296" y2="1783.12" gradientUnits="userSpaceOnUse"><stop stop-color="#0738A9"/><stop offset="1" stop-color="#9EB9E6"/></linearGradient><linearGradient id="paint2_linear" x1="8.416" y1="96.481" x2="13.27" y2="107.459" gradientUnits="userSpaceOnUse"><stop stop-color="#7BA8F3"/><stop offset="1" stop-color="#9EB9E6"/></linearGradient><linearGradient id="paint3_linear" x1="17.703" y1="26.925" x2="20.029" y2="22.699" gradientUnits="userSpaceOnUse"><stop stop-color="#169AFC"/><stop offset="1" stop-color="#3FB0F7"/></linearGradient><linearGradient id="paint4_linear" x1="156.524" y1="57.217" x2="157.31" y2="60.456" gradientUnits="userSpaceOnUse"><stop stop-color="#FF8A78"/><stop offset="1" stop-color="#FFA799"/></linearGradient><linearGradient id="paint5_linear" x1="153.44" y1="49.51" x2="155.512" y2="54.69" gradientUnits="userSpaceOnUse"><stop stop-color="#FFB89E"/><stop offset="1" stop-color="#FFA799"/></linearGradient><linearGradient id="paint6_linear" x1="153.796" y1="43.003" x2="156.975" y2="46.745" gradientUnits="userSpaceOnUse"><stop stop-color="#5A2D68"/><stop offset="1" stop-color="#22043D"/></linearGradient><linearGradient id="paint7_linear" x1="162.474" y1="72.059" x2="165.192" y2="80.958" gradientUnits="userSpaceOnUse"><stop stop-color="#178DE4"/><stop offset="1" stop-color="#17ADC9"/></linearGradient><linearGradient id="paint8_linear" x1="26054.8" y1="39085.4" x2="33895.5" y2="44378.6" gradientUnits="userSpaceOnUse"><stop stop-color="#235DA3"/><stop offset="1" stop-color="#123A76"/></linearGradient><linearGradient id="paint9_linear" x1="28355" y1="17826.6" x2="30130.4" y2="21999.6" gradientUnits="userSpaceOnUse"><stop stop-color="#178DE4"/><stop offset="1" stop-color="#17ADC9"/></linearGradient><linearGradient id="paint10_linear" x1="8081.29" y1="6337.7" x2="8208.34" y2="6363.47" gradientUnits="userSpaceOnUse"><stop stop-color="#FFB89E"/><stop offset="1" stop-color="#FFA799"/></linearGradient><linearGradient id="paint11_linear" x1="4857.48" y1="4919.21" x2="4798.39" y2="4914.85" gradientUnits="userSpaceOnUse"><stop stop-color="#FF8A78"/><stop offset="1" stop-color="#FFA799"/></linearGradient><linearGradient id="paint12_linear" x1="12022.6" y1="18431.8" x2="10083.2" y2="22988.8" gradientUnits="userSpaceOnUse"><stop stop-color="#178DE4"/><stop offset="1" stop-color="#17ADC9"/></linearGradient><linearGradient id="paint13_linear" x1="17061.4" y1="24553.5" x2="23499.3" y2="16656.7" gradientUnits="userSpaceOnUse"><stop stop-color="#965CF2"/><stop offset="1" stop-color="#FF8ADC"/></linearGradient><linearGradient id="paint14_linear" x1="34074.1" y1="5180.26" x2="34744" y2="2425.92" gradientUnits="userSpaceOnUse"><stop stop-color="#965CF2"/><stop offset="1" stop-color="#FF8ADC"/></linearGradient><linearGradient id="paint15_linear" x1="34426.4" y1="19585.2" x2="37181.6" y2="14311.5" gradientUnits="userSpaceOnUse"><stop stop-color="#965CF2"/><stop offset="1" stop-color="#FF8ADC"/></linearGradient><linearGradient id="paint16_linear" x1="43075.4" y1="14464.1" x2="43041.7" y2="16810.1" gradientUnits="userSpaceOnUse"><stop stop-color="#1B53D6"/><stop offset="1" stop-color="#255CDC"/></linearGradient><linearGradient id="paint17_linear" x1="5855.93" y1="8630.91" x2="6097.61" y2="9058.39" gradientUnits="userSpaceOnUse"><stop stop-color="#1C8EF4"/><stop offset="1" stop-color="#00CFDD"/></linearGradient><linearGradient id="paint18_linear" x1="29606.8" y1="23989.7" x2="31709.4" y2="19964.3" gradientUnits="userSpaceOnUse"><stop stop-color="#0738AB"/><stop offset="1" stop-color="#8CAFFF"/></linearGradient><linearGradient id="paint19_linear" x1="26726.4" y1="12965.3" x2="26752.1" y2="12077.6" gradientUnits="userSpaceOnUse"><stop stop-color="#3A9CE7"/><stop offset="1" stop-color="#0363F4"/></linearGradient><linearGradient id="paint20_linear" x1="104.687" y1="147" x2="104.718" y2="149.688" gradientUnits="userSpaceOnUse"><stop stop-color="#FDD248"/><stop offset="1" stop-color="#FABD23"/></linearGradient><linearGradient id="paint21_linear" x1="10008.9" y1="4764.44" x2="10099.3" y2="4974.49" gradientUnits="userSpaceOnUse"><stop stop-color="#FFB89E"/><stop offset="1" stop-color="#FFA799"/></linearGradient><linearGradient id="paint22_linear" x1="54.47" y1="58.383" x2="61.063" y2="75.32" gradientUnits="userSpaceOnUse"><stop stop-color="#70C851"/><stop offset="1" stop-color="#61C53E"/></linearGradient><linearGradient id="paint23_linear" x1="21.76" y1="155.54" x2="20.161" y2="151.935" gradientUnits="userSpaceOnUse"><stop stop-color="#002041"/><stop offset="1" stop-color="#004975"/></linearGradient><linearGradient id="paint24_linear" x1="3425.37" y1="2222.11" x2="3415.84" y2="2177.15" gradientUnits="userSpaceOnUse"><stop stop-color="#002041"/><stop offset="1" stop-color="#004975"/></linearGradient><linearGradient id="paint25_linear" x1="13358.7" y1="15483.5" x2="14906.9" y2="20634.1" gradientUnits="userSpaceOnUse"><stop stop-color="#70C851"/><stop offset="1" stop-color="#5E65D6"/></linearGradient><linearGradient id="paint26_linear" x1="2839.66" y1="1735.43" x2="2831.26" y2="1774.63" gradientUnits="userSpaceOnUse"><stop stop-color="#FFA698"/><stop offset="1" stop-color="#FFA698"/></linearGradient><linearGradient id="paint27_linear" x1="6306.63" y1="3732.03" x2="6330.4" y2="4032.86" gradientUnits="userSpaceOnUse"><stop stop-color="#5A2D68"/><stop offset="1" stop-color="#22043D"/></linearGradient><linearGradient id="paint28_linear" x1="4847.93" y1="3819.36" x2="4724.07" y2="4129.42" gradientUnits="userSpaceOnUse"><stop stop-color="#FFB89E"/><stop offset="1" stop-color="#FFA799"/></linearGradient><linearGradient id="paint29_linear" x1="4641.18" y1="3371.85" x2="4606.4" y2="3497.48" gradientUnits="userSpaceOnUse"><stop stop-color="#FFB89E"/><stop offset="1" stop-color="#FFA799"/></linearGradient><linearGradient id="paint30_linear" x1="4288.53" y1="1827.64" x2="4296.26" y2="1788.34" gradientUnits="userSpaceOnUse"><stop stop-color="#FF8A78"/><stop offset="1" stop-color="#FFA799"/></linearGradient><linearGradient id="paint31_linear" x1="9107.13" y1="14203.9" x2="7752.85" y2="15215.5" gradientUnits="userSpaceOnUse"><stop stop-color="#70C851"/><stop offset="1" stop-color="#5E65D6"/></linearGradient></defs></svg>