<svg width="211" height="164" fill="none" xmlns="http://www.w3.org/2000/svg"><path style="mix-blend-mode:multiply" opacity=".5" fill-rule="evenodd" clip-rule="evenodd" d="M107.064 164c39.618 0 71.734-1.837 71.734-4.106 0-2.268-32.116-4.105-71.734-4.105-39.617 0-71.732 1.838-71.732 4.105 0 2.267 32.116 4.106 71.732 4.106z" fill="url(#paint0_linear)"/><path style="mix-blend-mode:multiply" opacity=".5" fill-rule="evenodd" clip-rule="evenodd" d="M97.972 161.538c31.972 0 57.891-.733 57.891-1.638 0-.905-25.919-1.636-57.89-1.636-31.973 0-57.89.725-57.89 1.628 0 .904 25.918 1.646 57.89 1.646z" fill="url(#paint1_linear)"/><path fill-rule="evenodd" clip-rule="evenodd" d="M174.145 27.357H150.56c-1.907 0-3.467 1.652-3.467 3.652v23.414c0 2 1.568 3.651 3.467 3.651h23.585c1.894 0 3.469-1.644 3.469-3.651V31.008c0-2.007-1.558-3.65-3.469-3.65z" fill="url(#paint2_linear)"/><path fill-rule="evenodd" clip-rule="evenodd" d="M164.581 33.027l-.361-2.916h-3.735l-.362 2.914c-1.096.23-2.149.632-3.119 1.193l-2.242-1.736-2.642 2.642 1.616 2.083a9.671 9.671 0 00-1.487 3.32l-2.498.318v3.734l2.498.318a9.64 9.64 0 001.487 3.318l-1.616 2.083 2.642 2.642 2.242-1.736c.97.56 2.023.963 3.119 1.193l.362 2.912h3.735l.361-2.912a10.51 10.51 0 003.119-1.193l2.243 1.736 2.651-2.642-1.616-2.083a9.614 9.614 0 001.479-3.314l2.5-.318v-3.734l-2.5-.322a9.669 9.669 0 00-1.486-3.32l1.615-2.083-2.651-2.642-2.242 1.736a10.532 10.532 0 00-3.119-1.193l.007.002zm-2.229 3.345a6.344 6.344 0 110 12.688 6.344 6.344 0 010-12.688z" fill="#fff"/><path style="mix-blend-mode:multiply" opacity=".5" fill-rule="evenodd" clip-rule="evenodd" d="M147.093 41.53h7.904a3.943 3.943 0 003.93-3.93V27.358h-8.367c-1.907 0-3.467 1.652-3.467 3.652v10.52z" fill="url(#paint3_linear)"/><path fill-rule="evenodd" clip-rule="evenodd" d="M124.475 0h26.627a3.426 3.426 0 013.408 3.409v30.11a3.428 3.428 0 01-3.408 3.41h-26.627a3.43 3.43 0 01-3.409-3.41V3.41A3.426 3.426 0 01124.475 0z" fill="url(#paint4_linear)"/><path d="M150.371 4.172h-19.944a.683.683 0 00-.683.684v1.181c0 .378.306.684.683.684h19.944a.683.683 0 00.683-.684V4.856a.683.683 0 00-.683-.684zm-22.462-.811h-3.004a.384.384 0 00-.384.385v3.397c0 .213.172.385.384.385h3.004a.384.384 0 00.384-.385V3.746a.384.384 0 00-.384-.385zm22.314 6.369h-25.019a.683.683 0 00-.683.684v1.181c0 .378.306.684.683.684h25.019a.684.684 0 00.684-.684v-1.181a.684.684 0 00-.684-.684zm0 5.038h-25.019a.683.683 0 00-.683.683v1.182c0 .378.306.684.683.684h25.019a.684.684 0 00.684-.684V15.45a.684.684 0 00-.684-.683zm.148 5.672h-19.944a.683.683 0 00-.683.683v1.182c0 .377.306.683.683.683h19.944a.683.683 0 00.683-.683v-1.182a.683.683 0 00-.683-.684zm-22.462-.81h-3.004a.384.384 0 00-.384.385v3.398c0 .212.172.384.384.384h3.004a.384.384 0 00.384-.384v-3.398a.384.384 0 00-.384-.384zm22.314 6.368h-25.019a.683.683 0 00-.683.683v1.182c0 .378.306.684.683.684h25.019a.684.684 0 00.684-.684v-1.182a.684.684 0 00-.684-.683zm0 5.037h-25.019a.683.683 0 00-.683.684V32.9c0 .378.306.684.683.684h25.019a.684.684 0 00.684-.684v-1.18a.684.684 0 00-.684-.684z" fill="#F28CDC"/><path style="mix-blend-mode:multiply" opacity=".5" fill-rule="evenodd" clip-rule="evenodd" d="M138.133 36.945h-14.752c-1.275 0-2.322-1.18-2.322-2.619V12.36h8.349a8.748 8.748 0 018.725 8.724v15.862z" fill="url(#paint5_linear)"/><path d="M125.998 16.853H62.562a8.138 8.138 0 00-8.137 8.137v125.676a8.137 8.137 0 008.137 8.137h63.436a8.137 8.137 0 008.137-8.137V24.99a8.137 8.137 0 00-8.137-8.137z" fill="#CB5E5B"/><path d="M125.375 17.66h-62.19a7.978 7.978 0 00-7.978 7.978v124.378a7.979 7.979 0 007.978 7.979h62.19a7.978 7.978 0 007.978-7.979V25.638a7.978 7.978 0 00-7.978-7.979z" fill="#FA9C9B"/><path d="M105.337 23.333H83.225a.598.598 0 00-.598.599v1.032c0 .33.268.598.598.598h22.112a.598.598 0 00.598-.598v-1.032a.598.598 0 00-.598-.599z" fill="#485AF4"/><path fill-rule="evenodd" clip-rule="evenodd" d="M126.795 23.066a1.384 1.384 0 011.358 1.651 1.384 1.384 0 01-1.885 1.009 1.385 1.385 0 01-.449-2.254c.259-.26.61-.405.976-.406z" fill="#485AF4"/><path style="mix-blend-mode:multiply" opacity=".5" fill-rule="evenodd" clip-rule="evenodd" d="M68.68 27.634h51.216c3.615 0 6.572 2.878 6.572 6.391v53.52c0 3.513-2.959 6.39-6.572 6.39H68.679c-3.611 0-6.57-2.875-6.57-6.39v-53.52c-.007-3.515 2.95-6.391 6.57-6.391z" fill="url(#paint6_linear)"/><path opacity=".5" fill-rule="evenodd" clip-rule="evenodd" d="M94.281 105.24a19.804 19.804 0 11-7.578 38.099 19.803 19.803 0 017.578-38.099zm0 4.805a14.998 14.998 0 10-.002 29.997 14.998 14.998 0 00.002-29.997z" fill="#fff"/><path style="mix-blend-mode:multiply" opacity=".5" d="M98.442 96.728H90.12a3.532 3.532 0 00-3.532 3.532v49.565a3.532 3.532 0 003.532 3.532h8.32a3.532 3.532 0 003.533-3.532V100.26a3.532 3.532 0 00-3.532-3.532z" fill="url(#paint7_linear)"/><path d="M97.147 96.728h-5.733a2.432 2.432 0 00-2.432 2.431v51.766a2.432 2.432 0 002.432 2.432h5.733a2.432 2.432 0 002.431-2.432V99.159a2.431 2.431 0 00-2.431-2.431z" fill="url(#paint8_linear)"/><path d="M94.513 128.125a3.126 3.126 0 10-.443-6.236 3.126 3.126 0 00.443 6.236z" fill="#fff"/><path fill-rule="evenodd" clip-rule="evenodd" d="M94.281 111.902a2.26 2.26 0 012.083 1.402 2.26 2.26 0 01-1.649 3.081 2.27 2.27 0 01-2.321-.956 2.264 2.264 0 011.887-3.527zm0 21.758a2.263 2.263 0 11-.019 4.527 2.263 2.263 0 01.02-4.527zm0-30.51a1.22 1.22 0 011.192 1.453 1.218 1.218 0 01-2.203.438 1.216 1.216 0 011.011-1.891z" fill="#fff"/><path d="M94.281 146.937a1.216 1.216 0 100-2.431 1.216 1.216 0 000 2.431z" fill="#fff"/><path fill-rule="evenodd" clip-rule="evenodd" d="M70.541 30.054h47.48c3.35 0 6.091 2.666 6.091 5.924v49.62c0 3.257-2.742 5.924-6.091 5.924h-47.48c-3.35 0-6.092-2.667-6.092-5.924V35.981c0-3.263 2.742-5.927 6.092-5.927z" fill="#fff"/><path d="M47.986 29.43H23.653a2.755 2.755 0 00-2.755 2.755v14.384a2.756 2.756 0 002.755 2.756h24.333a2.756 2.756 0 002.756-2.756V32.184a2.755 2.755 0 00-2.756-2.755z" fill="url(#paint9_linear)"/><path fill-rule="evenodd" clip-rule="evenodd" d="M47.232 38.623l-7.35-4.297.628-1.867 8.929 5.22-.76 2.262-12.802 6.352v-.025l.883-2.63 10.472-5.015zm-14.949 8.081l4.914-14.654 2.116-.002-4.915 14.656h-2.115zm-7.876-6.575l7.35 4.297-.627 1.867-8.93-5.22.76-2.262 12.8-6.352v.025l-.88 2.63-10.473 5.015z" fill="#fff"/><path opacity=".5" fill-rule="evenodd" clip-rule="evenodd" d="M10.633 125.138h14.158a2.806 2.806 0 012.794 2.793v13.228a2.8 2.8 0 01-2.796 2.794H10.632a2.8 2.8 0 01-2.796-2.794v-13.228a2.804 2.804 0 012.796-2.793h.002zm0 2.028a.771.771 0 00-.757.758v13.228a.773.773 0 00.758.767H24.79a.774.774 0 00.758-.767v-13.221a.767.767 0 00-.758-.757l-14.158-.008z" fill="#70C851"/><path opacity=".5" d="M35.224 134.452H21.066a2.795 2.795 0 00-2.795 2.795v13.226a2.795 2.795 0 002.795 2.795h14.158a2.795 2.795 0 002.795-2.795v-13.226a2.795 2.795 0 00-2.795-2.795z" fill="url(#paint10_linear)"/><path opacity=".5" d="M50.842 1.163H36.627a2.807 2.807 0 00-2.806 2.806v13.28a2.807 2.807 0 002.806 2.806h14.215a2.807 2.807 0 002.806-2.807V3.97a2.807 2.807 0 00-2.806-2.806z" fill="#FA9C9B"/><path opacity=".5" fill-rule="evenodd" clip-rule="evenodd" d="M164.072 129.723a7.728 7.728 0 017.582 9.238 7.735 7.735 0 01-6.074 6.074 7.731 7.731 0 11-1.508-15.312zm0 1.977a5.756 5.756 0 00-5.645 6.874 5.758 5.758 0 004.52 4.522 5.756 5.756 0 005.907-2.446 5.756 5.756 0 00-4.782-8.95z" fill="url(#paint11_linear)"/><path opacity=".5" fill-rule="evenodd" clip-rule="evenodd" d="M14.372 67.751h8.007a1.587 1.587 0 011.581 1.582v7.48a1.585 1.585 0 01-1.581 1.58h-8.007a1.583 1.583 0 01-1.58-1.58v-7.48a1.585 1.585 0 011.58-1.582zm0 1.148a.435.435 0 00-.434.434v7.48a.436.436 0 00.434.434h8.007a.436.436 0 00.433-.434v-7.48a.436.436 0 00-.433-.434h-8.007z" fill="#fff"/><path style="mix-blend-mode:multiply" opacity=".5" fill-rule="evenodd" clip-rule="evenodd" d="M54.425 78.103h20.477c3.017 0 5.492 2.422 5.492 5.38v45.071c0 2.958-2.462 5.381-5.492 5.381H54.425V78.103z" fill="url(#paint12_linear)"/><path d="M71.925 81.468H35.046a4.73 4.73 0 00-4.73 4.73v39.629a4.73 4.73 0 004.73 4.731h36.88a4.73 4.73 0 004.73-4.731V86.198a4.73 4.73 0 00-4.73-4.73z" fill="#CB5E5B"/><path fill-rule="evenodd" clip-rule="evenodd" d="M51.719 99.822h3.579v1.494a15.58 15.58 0 0013.434-13.167h-1.488v-3.958H71.2v3.958h-1.704a16.346 16.346 0 01-14.204 13.929v.378H68.49v-1.325h3.327v3.31H68.49v-1.326H55.296v.663h-3.958v-.666h-12.86v1.325H35.16v-3.321h3.327v1.325h12.86v-.378a16.347 16.347 0 01-14.203-13.93H35.44v-3.957h3.956v3.958h-1.489a15.59 15.59 0 0013.433 13.182v-1.49l.379-.004zm19.345 2.049h-1.817v1.814h1.817v-1.814zm-33.34 0h-1.807v1.814h1.814v-1.814h-.007zm32.72-16.93H68v2.445h2.445V84.94zm-31.815 0h-2.445v2.445h2.445V84.94zm15.908 15.637h-2.443v2.443h2.443v-2.443z" fill="#fff"/><path fill-rule="evenodd" clip-rule="evenodd" d="M53.486 85.566l3.598 4.38c-.947 3.085-2.629 6.515-2.629 9.774h-.725v-7.632a1.403 1.403 0 001.098-1.4 1.346 1.346 0 10-2.683 0 1.403 1.403 0 001.096 1.4v7.632h-.725c0-3.26-1.704-6.918-2.628-9.774l3.598-4.38z" fill="#70C851"/><path d="M55.459 85.352h-3.947v2.386h3.947v-2.386z" fill="#485AF4"/><path fill-rule="evenodd" clip-rule="evenodd" d="M73.328 124.532h-3.323v-3.331h1.31a17.832 17.832 0 00-35.655 0h1.312v3.325h-3.328v-3.325h1.283a18.558 18.558 0 1137.117 0h1.282v3.325l.002.006zm-37.117-2.57h-1.809v1.814h1.814v-1.818l-.005.004zm36.36 0h-1.809v1.814h1.814l-.005-1.814z" fill="#fff"/><path fill-rule="evenodd" clip-rule="evenodd" d="M52.531 60.86h32.656a1.416 1.416 0 011.413 1.41v3.39a1.417 1.417 0 01-1.413 1.412H52.531a1.416 1.416 0 01-1.413-1.411v-3.39a1.417 1.417 0 011.413-1.411z" fill="#1C2570"/><path d="M80.366 63.05H57.355a.417.417 0 00-.417.416v1c0 .23.186.416.417.416h23.01c.23 0 .417-.186.417-.416v-1a.417.417 0 00-.416-.417z" fill="#D1D5F9"/><path fill-rule="evenodd" clip-rule="evenodd" d="M121.326 60.222c7.742-9.532 13.067-6.91 21.577 1.178-16.407-8.712-11.129 8.292-27.813 17.788-8.888 5.06-17.991 1.36-21.292-3.186-3.895-5.35-1.524-8.74-6.043-18.805-3.733-8.317-9.802-8.87-18.22-7.53 7.232-15.113 25.306-20.452 35.628-10.871 10.936 10.162 3.408 15.688 6.02 23.462 1.382 4.107 5.128 4.15 10.143-2.036z" fill="#CB5E5B"/><path opacity=".5" fill-rule="evenodd" clip-rule="evenodd" d="M63.47 55.692c24.67-7.007 23.27 7.552 23.647 21.21.337 12.203 17.258 15.02 24.354 5.141 6.06-8.43 10.506-22.448 11.741-23.984-2.683 1.935-20.869 15.419-20.824 3.99.125-28.719-28.067-20.43-38.919-6.357z" fill="url(#paint13_linear)"/><path opacity=".5" fill-rule="evenodd" clip-rule="evenodd" d="M142.761 61.244a52.865 52.865 0 00-5.009-7.145c-9.607-11.624-9.658-1.704-11.033 6.269-.577 3.327-.324 7.283-2.498 10.92 5.254-6.964 6.515-16.893 18.432-9.871l.108-.173z" fill="url(#paint14_linear)"/><path fill-rule="evenodd" clip-rule="evenodd" d="M149.13 126.931c.012 1.137-4.444-.064-7.512-3.162l2.272-3.352c1.377 1.218 5.223 4.962 5.24 6.514zm-4.782-10.296c-.094-4.392-7.764-13.743-8.217-14.288-.547-.654-1.153.895-1.683 2.908-1.759 6.682.422 14.26 6.727 17.862l3.173-6.482z" fill="#1C2570"/><path fill-rule="evenodd" clip-rule="evenodd" d="M153.262 115.45c-20.02.924-19.606.2-32.194 14.9-.568.704-1.21 1.63-1.793 2.272l-.555.394c-.517.602-1.064 1.254-1.657 1.97-.593.715-1.191.685-1.553.07l-2.651 1.136-6.717-.042c1.721-.969 4.049-1.774 5.418-2.473 7.03-3.587 7.539-10.817 13.137-18.01 8.7-11.173 15.277-8.963 26.48-10.457a4.176 4.176 0 013.053.977 4.194 4.194 0 011.466 2.85c.191 2.316-.129 6.221-2.434 6.413z" fill="url(#paint15_linear)"/><path fill-rule="evenodd" clip-rule="evenodd" d="M153.262 115.45c-20.021.924-19.606.2-32.194 14.9-.358.437-.738.962-1.115 1.448 3.03-8.537 9.09-15.038 15.254-18.434-.379-2.352-.78-3.772-.757-5.724 4.88-1.966 9.959-1.515 16.727-2.421a4.193 4.193 0 014.069 2.257c.252.489.405 1.023.45 1.571.191 2.306-.129 6.211-2.434 6.403z" fill="url(#paint16_linear)"/><path fill-rule="evenodd" clip-rule="evenodd" d="M119.582 132.27c-1.655.716-3.219 1.326-4.683 1.704-1.832.46-3.561.4-5.769.915-1.577.379-3.452 1.136-4.374 2.305 3.085.259 6.181-.133 9.279-.178l-.028.483c.823-.02 1.645-.083 2.462-.19.992-.127 1.261-.206 1.859-1.1.888-1.326.983-1.975 1.254-3.939z" fill="url(#paint17_linear)"/><path fill-rule="evenodd" clip-rule="evenodd" d="M178.605 74.368c3.539.871 6.463 3.727 8.776 4.306 6.832 1.705 15.519-6.753 21.602 1.394 3.105 4.167 1.066 12.904-3.831 16.434-6.193 4.462-15.062 1.625-19.983-3.219-5.21-5.134-7.047-1.273-11.509-3.265-8.669-3.873-4.401-17.949 4.945-15.65z" fill="url(#paint18_linear)"/><path fill-rule="evenodd" clip-rule="evenodd" d="M149.219 72.857c.013-1.087-.108-1.136.394-2.106.288-.534.467-1.12.525-1.725.144-1.044.189-2.714-.065-2.77-.189-.04-.401.397-.738 1.064a8.659 8.659 0 00-1.065-1.496c-.308-.38-.609-.784-.984-.947-.19-.08-.292-.04-.296.145 0 .273.305.654.61 1.137.178.276.364.706.456.852-.524.074-1.655.053-1.848.496-.161.367.424.907.669 1.176-.415.831-.55 1.25-.228 2.195.201.587.506 1.212.506 2.36l2.064-.381z" fill="url(#paint19_linear)"/><path fill-rule="evenodd" clip-rule="evenodd" d="M145.485 63.928a104.279 104.279 0 016.851 6.518c1.326 1.375.296 2.566-1.223.922-2.112-2.282-3.945-4.488-6.005-7.063l.377-.377z" fill="#8C75EA"/><path style="mix-blend-mode:multiply" opacity=".35" fill-rule="evenodd" clip-rule="evenodd" d="M145.485 63.928l.555.488a.626.626 0 01-.087.27c2.026 2.02 3.976 4.482 5.891 6.465.189.206.854.638.937-.106.569 1.07-.378 1.72-1.668.323-2.112-2.282-3.945-4.488-6.005-7.063l.377-.377z" fill="url(#paint20_linear)"/><path fill-rule="evenodd" clip-rule="evenodd" d="M143.741 64.515c-1.123-.907-1.123-2.322-1.288-3.8.947 1.088 1.382 1.569 2.808 1.648.898.171 1.137 1.608.457 2.224-.356.327-1.154.594-1.977-.072z" fill="url(#paint21_linear)"/><path fill-rule="evenodd" clip-rule="evenodd" d="M149.804 70.351c.174-.423.286-.87.334-1.325.144-1.044.189-2.714-.065-2.77-.155-.035-.329.26-.568.743-.174.338-.504 1.516-.638 2.156-.636 1.255.278 1.979.937 1.196z" fill="url(#paint22_linear)"/><path fill-rule="evenodd" clip-rule="evenodd" d="M146.856 68.677c.35.1.789.425 1.88.034-.117.959-.911 1.195-.655 2.678-.379-1.024-.438-1.543-.116-1.965-.827-.207-1.041-.574-1.109-.747z" fill="#FF8A79"/><path fill-rule="evenodd" clip-rule="evenodd" d="M148.929 119.841c-7.764.873-8.22 7.749-7.575 15.412.12 1.624.405 3.231.852 4.797l.402 2.639-.812 4.748-3.686 5.615c.121-1.971.233-4.051.411-5.604 1.002-8.813-6.946-18.899-3.571-28.567 2.06-5.897 8.256-8.242 18.208-11.162a4.153 4.153 0 013.2.234 4.162 4.162 0 012.086 2.438c1.647 5.303-1.368 7.299-4.96 8.356-1.517.448-3.134.939-4.555 1.094z" fill="url(#paint23_linear)"/><path fill-rule="evenodd" clip-rule="evenodd" d="M148.929 119.841c-7.764.873-8.22 7.749-7.575 15.412.12 1.624.405 3.231.852 4.797l.16 1.051c-3.22-6.297-4.422-13.319-2.404-19.544-1.907-2.023-2.588-3.788-2.867-6.312 3.049-3.399 8.46-5.303 16.063-7.526a4.153 4.153 0 013.2.234 4.162 4.162 0 012.086 2.438c1.653 5.316-1.392 7.246-4.998 8.299-1.507.443-3.106.996-4.517 1.151z" fill="url(#paint24_linear)"/><path fill-rule="evenodd" clip-rule="evenodd" d="M149.507 72.512c1.197 6.839 4.545 13.42 14.014 12.677 1.316-.104 4.575-.29 5.64 1.148 1.56 2.11-.086 4.617-1.781 5.408-3.654 1.705-11.042.14-14.392-1.907-4.789-2.926-6.64-8.921-6.03-17.028.154-.625 2.125-.605 2.549-.298z" fill="url(#paint25_linear)"/><path style="mix-blend-mode:multiply" opacity=".35" fill-rule="evenodd" clip-rule="evenodd" d="M163.417 86.734c1.312.131 2.7.29 3.422 1.926 1.06 2.4-.831 3.02-2.651 3.422-3.941.866-10.532-1.062-13.338-3.942-3.22-3.31-4.407-9.128-3.882-15.34 1.263 13.902 10.252 17.688 16.449 13.934z" fill="url(#paint26_linear)"/><path fill-rule="evenodd" clip-rule="evenodd" d="M148.657 105.312c-.116-.687-.989-5.018-.161-5.302.613-.216 1.856.911 3.304 3.772l-3.143 1.53z" fill="#5352CF"/><path fill-rule="evenodd" clip-rule="evenodd" d="M155.024 100.25c-9.632 5.67-16.251 1.866-19.188 1.943.549.089.278 1.087.36 2.652.551 10.642 5.475 14.582 9.238 18.142 1.452 1.378 3.03 2.034 3.696 3.943-.35-10.393 4.765-6.049 9.776-10.765 1.437-1.352 3.073-3.833 4.679-6.122l-8.561-9.793z" fill="url(#paint27_linear)"/><path fill-rule="evenodd" clip-rule="evenodd" d="M162.407 113.204c-4.569-2.701-9.113-6.295-11.965-10.808-.842-1.326-1.515-2.443-1.927-2.386 3.09-.663 4.973-1.137 9.063-5.583 2.316-2.52 3.235-6.08 5.611-7.712 2.773-1.893 5.901-1.439 8.257.279 1.029.757 4.248 2.613 4.68 3.715.583 1.483-1.646 3.345-2.426 5.475-1.913 5.216-8.06 12.406-11.293 17.02z" fill="#70C851"/><path fill-rule="evenodd" clip-rule="evenodd" d="M171.978 85.568c-.676 1.269-.85 1.627-1.181 3.03-1.002 1.077-3.623.636-3.117-1.638.408-.407.734-.889.96-1.419l1.515-.378 1.823.405z" fill="#FFA698"/><path fill-rule="evenodd" clip-rule="evenodd" d="M171.978 85.568a9.846 9.846 0 00-.774 1.577c-.758.51-2.481.392-3.398-.314.358-.333.658-.93.834-1.295l1.515-.38 1.823.412z" fill="url(#paint28_linear)"/><path fill-rule="evenodd" clip-rule="evenodd" d="M169.909 78.525c-1.216 1.935-2.371 3.431-2.462 5.36-.084 1.65.933 2.018 2.164 2.054 1.231.036 1.949 0 3.076-.489.314 0 .602.13 1.026 0 .631-.204 1.294-.812 1.218-1.475-.034-.295-.474-.328-.928-.043-.568.352-.479-.237-.29-.608.515-1.017.568-1.79.932-2.943-1.706-.04-3.945-.104-4.736-1.856z" fill="url(#paint29_linear)"/><path fill-rule="evenodd" clip-rule="evenodd" d="M169.909 78.525c-.19.303-.379.596-.568.88 1.104 1.235 2.708 1.705 4.806 1.375-.167 1.095-.729 1.733-.883 2.496-.125.621-.02.983.364 1.04.542.08.64-.265 1.29-.117a.992.992 0 000-.231c-.034-.296-.474-.328-.928-.044-.568.352-.479-.237-.29-.608.515-1.017.568-1.79.932-2.943-1.693-.032-3.932-.096-4.723-1.848z" fill="#FFA698"/><path fill-rule="evenodd" clip-rule="evenodd" d="M170.541 79.474c1.402 1.068 4.324 1.37 5.174-.097.782-1.348-.299-3.11-1.515-4.068-3.326-2.626-6.731 1.824-3.659 4.165z" fill="#5A2D68"/><path fill-rule="evenodd" clip-rule="evenodd" d="M170.541 79.474c1.29.98 3.863 1.325 4.924.223l.011-.093c-3.373-.11-5.605-1.412-5.904-3.44-.461 1.035-.29 2.35.969 3.31z" fill="#22043D"/><path fill-rule="evenodd" clip-rule="evenodd" d="M142.157 139.659c-.301 1.779-.634 3.432-1.119 4.856-.61 1.788-1.602 3.204-2.369 5.339-.549 1.524-.926 3.511-.445 4.923 1.894-2.448 3.25-5.259 4.893-7.88l.39.288c.434-.701.83-1.424 1.188-2.166.434-.904.511-1.172.087-2.161-.631-1.471-1.123-1.905-2.625-3.199z" fill="url(#paint30_linear)"/><path fill-rule="evenodd" clip-rule="evenodd" d="M176.12 90.56c8.461 8.616 13.41 5.681 22.346.11 1.487-.282 2.788 2.11 1.75 3.36-9.906 11.93-20.021 10.047-29.44 2.399-1.386-1.402-1.309-4.316.093-5.7 1.401-1.385 3.861-1.57 5.251-.17z" fill="url(#paint31_linear)"/><path style="mix-blend-mode:multiply" opacity=".35" fill-rule="evenodd" clip-rule="evenodd" d="M162.407 113.204c1.618-2.987 7.982-16.703 9.443-19.179.454.85 7.423 4.765 9.711 5.39 8.105 2.216 14.756-2.316 18.665-5.386-9.172 11.054-18.521 10.253-27.333 4.004-2.468 4.969-7.632 11.082-10.486 15.171z" fill="url(#paint32_linear)"/><path fill-rule="evenodd" clip-rule="evenodd" d="M195.45 87.571l9.201 10.147a1.112 1.112 0 01-.075 1.572l-7.041 6.39a1.118 1.118 0 01-1.572-.076l-9.211-10.15a1.112 1.112 0 01.077-1.572l7.049-6.39a1.116 1.116 0 011.572.08z" fill="#273087"/><path fill-rule="evenodd" clip-rule="evenodd" d="M195.353 88.36l8.522 9.38a1.002 1.002 0 01-.068 1.412l-6.321 5.736a1.005 1.005 0 01-1.411-.068l-8.522-9.382a.998.998 0 01.068-1.41l6.321-5.739a1.003 1.003 0 011.411.07z" fill="#DBE9FF"/><path fill-rule="evenodd" clip-rule="evenodd" d="M201.517 94.33c.89-1.02-.303-3.043-1.399-3.861-.589-.44-1.201-.199-2.15.587-.448.379-1.003 1.136-.852 1.343.277.378 1.273-.915 2.203-.864-.408.341-.77.735-1.076 1.17-.269.38-.282.61.256 1.154.379.379.833.727 1.214.297.606-.684 1.034-.47 1.804.174z" fill="url(#paint33_linear)"/><path fill-rule="evenodd" clip-rule="evenodd" d="M198.374 98.95c2.147-.648 2.768.211 3.238 2.188l-.074.065c-1.589-2.703-2.634.378-6.211.098-1.966-.155-3.017-1.729-3.053-2.812-.044-1.275.702-1.559 1.07-3.655.305-1.729-.604-2.475-2.093-3.17 2.79-1.63 6.25-.529 6.861 2.119.646 2.803-1.153 2.87-1.577 4.394-.216.802.369 1.215 1.839.772z" fill="url(#paint34_linear)"/><path opacity=".5" fill-rule="evenodd" clip-rule="evenodd" d="M189.82 92.037c4.458 1.547 2.689 3.689 1.291 5.87-.21.32-.331.69-.35 1.073l2.284 2.511c.468.08.949.035 1.395-.129 1.879-.691 4.106-2.445 4.468-2.559-.638.021-4.998.207-3.754-1.613 3.008-4.397-1.871-6.16-5.143-5.335l-.191.182z" fill="url(#paint35_linear)"/><path opacity=".5" fill-rule="evenodd" clip-rule="evenodd" d="M201.699 101.057c.013-.437-.001-.875-.043-1.31-.275-2.894-1.356-1.326-2.439-.19-.451.47-.839 1.127-1.58 1.473 1.538-.524 2.78-1.893 3.894.19l.168-.163z" fill="url(#paint36_linear)"/><defs><linearGradient id="paint0_linear" x1="325498" y1="7661.05" x2="326103" y2="10875.5" gradientUnits="userSpaceOnUse"><stop stop-color="#CB5E5B"/><stop offset="1" stop-color="#5E65D6"/></linearGradient><linearGradient id="paint1_linear" x1="257345" y1="3147.45" x2="257719" y2="5132.05" gradientUnits="userSpaceOnUse"><stop stop-color="#CB5E5B"/><stop offset="1" stop-color="#5E65D6"/></linearGradient><linearGradient id="paint2_linear" x1="78008.5" y1="7050.15" x2="78048.3" y2="11092.8" gradientUnits="userSpaceOnUse"><stop stop-color="#70C851"/><stop offset="1" stop-color="#00CFDD"/></linearGradient><linearGradient id="paint3_linear" x1="29761.1" y1="3741.66" x2="29733.6" y2="1168.23" gradientUnits="userSpaceOnUse"><stop stop-color="#1C8EF4"/><stop offset="1" stop-color="#00CFDD"/></linearGradient><linearGradient id="paint4_linear" x1="137.129" y1="-2.411" x2="138.093" y2="28.145" gradientUnits="userSpaceOnUse"><stop stop-color="#FD90DA"/><stop offset="1" stop-color="#8E6DFD"/></linearGradient><linearGradient id="paint5_linear" x1="40682.3" y1="2542.58" x2="40805.4" y2="5598.85" gradientUnits="userSpaceOnUse"><stop stop-color="#FD90DA"/><stop offset="1" stop-color="#8E6DFD"/></linearGradient><linearGradient id="paint6_linear" x1="99698.7" y1="-32358.3" x2="111450" y2="-16835.4" gradientUnits="userSpaceOnUse"><stop stop-color="#FD90DA"/><stop offset="1" stop-color="#8E6DFD"/></linearGradient><linearGradient id="paint7_linear" x1="33156.8" y1="29534.9" x2="39174" y2="37482.6" gradientUnits="userSpaceOnUse"><stop stop-color="#FD90DA"/><stop offset="1" stop-color="#8E6DFD"/></linearGradient><linearGradient id="paint8_linear" x1="22440" y1="45006.5" x2="24750.7" y2="44662.9" gradientUnits="userSpaceOnUse"><stop stop-color="#CB5E5B"/><stop offset="1" stop-color="#FF8ADC"/></linearGradient><linearGradient id="paint9_linear" x1="56512.9" y1="3859.98" x2="56368.4" y2="5753.76" gradientUnits="userSpaceOnUse"><stop stop-color="#FD90DA"/><stop offset="1" stop-color="#8E6DFD"/></linearGradient><linearGradient id="paint10_linear" x1="36360.3" y1="14827.1" x2="36434.9" y2="16159.7" gradientUnits="userSpaceOnUse"><stop stop-color="#FD90DA"/><stop offset="1" stop-color="#8E6DFD"/></linearGradient><linearGradient id="paint11_linear" x1="39958.2" y1="12724.3" x2="39391.6" y2="11820.6" gradientUnits="userSpaceOnUse"><stop stop-color="#6D6AFE"/><stop offset="1" stop-color="#3FB0F7"/></linearGradient><linearGradient id="paint12_linear" x1="50154.7" y1="16535.7" x2="56442.9" y2="24843.7" gradientUnits="userSpaceOnUse"><stop stop-color="#FD90DA"/><stop offset="1" stop-color="#8E6DFD"/></linearGradient><linearGradient id="paint13_linear" x1="133187" y1="16212.3" x2="129723" y2="20835.2" gradientUnits="userSpaceOnUse"><stop stop-color="#965CF2"/><stop offset="1" stop-color="#F3A4A3"/></linearGradient><linearGradient id="paint14_linear" x1="44928.4" y1="7660.1" x2="44207.3" y2="10063.7" gradientUnits="userSpaceOnUse"><stop stop-color="#965CF2"/><stop offset="1" stop-color="#FF8ADC"/></linearGradient><linearGradient id="paint15_linear" x1="117469" y1="21739.8" x2="118348" y2="22519.9" gradientUnits="userSpaceOnUse"><stop stop-color="#FFB89E"/><stop offset="1" stop-color="#FFA799"/></linearGradient><linearGradient id="paint16_linear" x1="87165.8" y1="18767.7" x2="85931.4" y2="17956.2" gradientUnits="userSpaceOnUse"><stop stop-color="#FF8A78"/><stop offset="1" stop-color="#FFA799"/></linearGradient><linearGradient id="paint17_linear" x1="33941.2" y1="4181.46" x2="33996.8" y2="4324.14" gradientUnits="userSpaceOnUse"><stop stop-color="#3E4795"/><stop offset="1" stop-color="#273088"/></linearGradient><linearGradient id="paint18_linear" x1="112225" y1="12195.5" x2="112119" y2="13157.5" gradientUnits="userSpaceOnUse"><stop stop-color="#5A2D68"/><stop offset="1" stop-color="#22043D"/></linearGradient><linearGradient id="paint19_linear" x1="10246.9" y1="3647.27" x2="10143.9" y2="3725.4" gradientUnits="userSpaceOnUse"><stop stop-color="#FFB89E"/><stop offset="1" stop-color="#FFA799"/></linearGradient><linearGradient id="paint20_linear" x1="19534.4" y1="3471.46" x2="19704.4" y2="3679.08" gradientUnits="userSpaceOnUse"><stop stop-color="#A77EF7"/><stop offset="1" stop-color="#5E65D6"/></linearGradient><linearGradient id="paint21_linear" x1="9110.13" y1="1756.48" x2="9121.54" y2="1739.62" gradientUnits="userSpaceOnUse"><stop stop-color="#FF66BC"/><stop offset=".56" stop-color="#FF8ADC"/><stop offset="1" stop-color="#FFBBA8"/></linearGradient><linearGradient id="paint22_linear" x1="4130.85" y1="1964.68" x2="4151.25" y2="1974.48" gradientUnits="userSpaceOnUse"><stop stop-color="#FFB89E"/><stop offset="1" stop-color="#FFA799"/></linearGradient><linearGradient id="paint23_linear" x1="59969.9" y1="34896.9" x2="60935.9" y2="34808.8" gradientUnits="userSpaceOnUse"><stop stop-color="#FFB89E"/><stop offset="1" stop-color="#FFA799"/></linearGradient><linearGradient id="paint24_linear" x1="54166.1" y1="24409" x2="53058.1" y2="24551.7" gradientUnits="userSpaceOnUse"><stop stop-color="#FF8A78"/><stop offset="1" stop-color="#FFA799"/></linearGradient><linearGradient id="paint25_linear" x1="58023.1" y1="10308.9" x2="57682.3" y2="10964.8" gradientUnits="userSpaceOnUse"><stop stop-color="#70C851"/><stop offset="1" stop-color="#70C851"/></linearGradient><linearGradient id="paint26_linear" x1="51642" y1="10050" x2="50122.3" y2="9613.78" gradientUnits="userSpaceOnUse"><stop stop-color="#A77EF7"/><stop offset="1" stop-color="#5E65D6"/></linearGradient><linearGradient id="paint27_linear" x1="68134.6" y1="16565.7" x2="69127.8" y2="17683.8" gradientUnits="userSpaceOnUse"><stop stop-color="#3E4795"/><stop offset="1" stop-color="#273088"/></linearGradient><linearGradient id="paint28_linear" x1="10979.6" y1="1285.23" x2="10978.9" y2="1298.67" gradientUnits="userSpaceOnUse"><stop stop-color="#FF8A78"/><stop offset="1" stop-color="#FFA799"/></linearGradient><linearGradient id="paint29_linear" x1="19657.2" y1="3776.51" x2="19626.8" y2="3949.22" gradientUnits="userSpaceOnUse"><stop stop-color="#FFB89E"/><stop offset="1" stop-color="#FFA799"/></linearGradient><linearGradient id="paint30_linear" x1="17221.6" y1="12964.8" x2="17426.7" y2="12939.2" gradientUnits="userSpaceOnUse"><stop stop-color="#3E4795"/><stop offset="1" stop-color="#273088"/></linearGradient><linearGradient id="paint31_linear" x1="82518.6" y1="7160.67" x2="82511.3" y2="8348.55" gradientUnits="userSpaceOnUse"><stop stop-color="#70C851"/><stop offset="1" stop-color="#5E65D6"/></linearGradient><linearGradient id="paint32_linear" x1="99470.7" y1="11565.4" x2="100699" y2="13064.3" gradientUnits="userSpaceOnUse"><stop stop-color="#A77EF7"/><stop offset="1" stop-color="#5E65D6"/></linearGradient><linearGradient id="paint33_linear" x1="13219.9" y1="2349.07" x2="13212.3" y2="2403.29" gradientUnits="userSpaceOnUse"><stop stop-color="#FFB89E"/><stop offset="1" stop-color="#FFA799"/></linearGradient><linearGradient id="paint34_linear" x1="28503.8" y1="6085.73" x2="28338.1" y2="6204.03" gradientUnits="userSpaceOnUse"><stop stop-color="#1C8EF4"/><stop offset="1" stop-color="#00CFDD"/></linearGradient><linearGradient id="paint35_linear" x1="24972.5" y1="5756.75" x2="24719.5" y2="5800.99" gradientUnits="userSpaceOnUse"><stop stop-color="#965CF2"/><stop offset="1" stop-color="#FF8ADC"/></linearGradient><linearGradient id="paint36_linear" x1="11420.6" y1="1939.59" x2="11371.8" y2="1998.24" gradientUnits="userSpaceOnUse"><stop stop-color="#965CF2"/><stop offset="1" stop-color="#FF8ADC"/></linearGradient></defs></svg>